ffmpeg version 4.4.2-0ubuntu0.22.04.1 Copyright (c) 2000-2021 the FFmpeg developers
  built with gcc 11 (Ubuntu 11.2.0-19ubuntu1)
  configuration: --prefix=/usr --extra-version=0ubuntu0.22.04.1 --toolchain=hardened --libdir=/usr/lib/x86_64-linux-gnu --incdir=/usr/include/x86_64-linux-gnu --arch=amd64 --enable-gpl --disable-stripping --enable-gnutls --enable-ladspa --enable-libaom --enable-libass --enable-libbluray --enable-libbs2b --enable-libcaca --enable-libcdio --enable-libcodec2 --enable-libdav1d --enable-libflite --enable-libfontconfig --enable-libfreetype --enable-libfribidi --enable-libgme --enable-libgsm --enable-libjack --enable-libmp3lame --enable-libmysofa --enable-libopenjpeg --enable-libopenmpt --enable-libopus --enable-libpulse --enable-librabbitmq --enable-librubberband --enable-libshine --enable-libsnappy --enable-libsoxr --enable-libspeex --enable-libsrt --enable-libssh --enable-libtheora --enable-libtwolame --enable-libvidstab --enable-libvorbis --enable-libvpx --enable-libwebp --enable-libx265 --enable-libxml2 --enable-libxvid --enable-libzimg --enable-libzmq --enable-libzvbi --enable-lv2 --enable-omx --enable-openal --enable-opencl --enable-opengl --enable-sdl2 --enable-pocketsphinx --enable-librsvg --enable-libmfx --enable-libdc1394 --enable-libdrm --enable-libiec61883 --enable-chromaprint --enable-frei0r --enable-libx264 --enable-shared
  libavutil      56. 70.100 / 56. 70.100
  libavcodec     58.134.100 / 58.134.100
  libavformat    58. 76.100 / 58. 76.100
  libavdevice    58. 13.100 / 58. 13.100
  libavfilter     7.110.100 /  7.110.100
  libswscale      5.  9.100 /  5.  9.100
  libswresample   3.  9.100 /  3.  9.100
  libpostproc    55.  9.100 / 55.  9.100
Input #0, flv, from '/storage/32426326/20250703/32426326-20250703-141116-797.flv':
  Metadata:
    7.1             : false
    4.0             : false
    audiochannels   : 2
    3.1             : false
    fps             : 60
    displayHeight   : 1440
    encoder         : obs-output module (libobs version 31.0.2)
    2.1             : false
    displayWidth    : 2560
    4.1             : false
    5.1             : false
    fileSize        : 0
    cdn_ip          : 192.168.252.4
    Title           : 技术主播没有GG
    Artist          : 蓝音BuBuLine (32426326)
    Comment         : mikufans直播间 32426326 的直播录像
                    : 主播名: 蓝音BuBuLine
                    : 直播标题: 技术主播没有GG
                    : 直播分区: 单机游戏·主机游戏
                    : 录制时间: 2025-07-03T14:11:16.8176925+00:00
                    : 直播服务器:
                    : d1--ov-gotcha07b.bilivideo.com [156.59.188.244]
                    : 
                    : 使用 mikufans录播姬 录制 https://rec.danmuji.org
                    : 录播姬版本: 2.17.0
    RecordedBy      : BililiveRecorder mikufans录播姬
    RecordedFrom    : d1--ov-gotcha07b.bilivideo.com
    StreamServers   : d1--ov-gotcha07b.bilivideo.com [156.59.188.244]
    RecorderVersion : 2.17.0+Branch.tags-v2.17.0.Sha.79d60d3b69038634787f3d53faa1124d513cf64a
    StartTime       : Thu, 03 Jul 2025 14:11:16 +0000
    RoomId          : 32426326
    ShortId         : 0
    Name            : 蓝音BuBuLine
    StreamTitle     : 技术主播没有GG
    AreaNameParent  : 单机游戏
    AreaNameChild   : 主机游戏
  Duration: 08:28:49.11, start: 0.035000, bitrate: 8596 kb/s
  Stream #0:0: Video: h264 (High), yuv420p(tv, bt709, progressive), 2560x1440 [SAR 1:1 DAR 16:9], 10240 kb/s, 60 fps, 59.94 tbr, 1k tbn, 120 tbc
  Stream #0:1: Audio: aac (LC), 48000 Hz, stereo, fltp, 196 kb/s
Stream mapping:
  Stream #0:0 -> #0:0 (h264 (native) -> png (native))
Press [q] to stop, [?] for help
Output #0, image2, to '/storage/32426326/20250703/32426326-20250703-141116-797.all.thumb.png':
  Metadata:
    7.1             : false
    4.0             : false
    audiochannels   : 2
    3.1             : false
    fps             : 60
    displayHeight   : 1440
    AreaNameChild   : 主机游戏
    2.1             : false
    displayWidth    : 2560
    4.1             : false
    5.1             : false
    fileSize        : 0
    cdn_ip          : 192.168.252.4
    Title           : 技术主播没有GG
    Artist          : 蓝音BuBuLine (32426326)
    Comment         : mikufans直播间 32426326 的直播录像
                    : 主播名: 蓝音BuBuLine
                    : 直播标题: 技术主播没有GG
                    : 直播分区: 单机游戏·主机游戏
                    : 录制时间: 2025-07-03T14:11:16.8176925+00:00
                    : 直播服务器:
                    : d1--ov-gotcha07b.bilivideo.com [156.59.188.244]
                    : 
                    : 使用 mikufans录播姬 录制 https://rec.danmuji.org
                    : 录播姬版本: 2.17.0
    RecordedBy      : BililiveRecorder mikufans录播姬
    RecordedFrom    : d1--ov-gotcha07b.bilivideo.com
    StreamServers   : d1--ov-gotcha07b.bilivideo.com [156.59.188.244]
    RecorderVersion : 2.17.0+Branch.tags-v2.17.0.Sha.79d60d3b69038634787f3d53faa1124d513cf64a
    StartTime       : Thu, 03 Jul 2025 14:11:16 +0000
    RoomId          : 32426326
    ShortId         : 0
    Name            : 蓝音BuBuLine
    StreamTitle     : 技术主播没有GG
    AreaNameParent  : 单机游戏
    encoder         : Lavf58.76.100
  Stream #0:0: Video: png, rgb24(pc, gbr/bt709/bt709, progressive), 2560x1440 [SAR 1:1 DAR 16:9], q=2-31, 200 kb/s, 59.94 fps, 59.94 tbn
    Metadata:
      encoder         : Lavc58.134.100 png
frame=    1 fps=0.0 q=0.0 size=N/A time=00:00:00.00 bitrate=N/A speed=   0x    frame=    1 fps=0.0 q=-0.0 Lsize=N/A time=00:00:00.01 bitrate=N/A speed=0.044x    
video:2318kB audio:0kB subtitle:0kB other streams:0kB global headers:0kB muxing overhead: unknown
ffmpeg version 4.4.2-0ubuntu0.22.04.1 Copyright (c) 2000-2021 the FFmpeg developers
  built with gcc 11 (Ubuntu 11.2.0-19ubuntu1)
  configuration: --prefix=/usr --extra-version=0ubuntu0.22.04.1 --toolchain=hardened --libdir=/usr/lib/x86_64-linux-gnu --incdir=/usr/include/x86_64-linux-gnu --arch=amd64 --enable-gpl --disable-stripping --enable-gnutls --enable-ladspa --enable-libaom --enable-libass --enable-libbluray --enable-libbs2b --enable-libcaca --enable-libcdio --enable-libcodec2 --enable-libdav1d --enable-libflite --enable-libfontconfig --enable-libfreetype --enable-libfribidi --enable-libgme --enable-libgsm --enable-libjack --enable-libmp3lame --enable-libmysofa --enable-libopenjpeg --enable-libopenmpt --enable-libopus --enable-libpulse --enable-librabbitmq --enable-librubberband --enable-libshine --enable-libsnappy --enable-libsoxr --enable-libspeex --enable-libsrt --enable-libssh --enable-libtheora --enable-libtwolame --enable-libvidstab --enable-libvorbis --enable-libvpx --enable-libwebp --enable-libx265 --enable-libxml2 --enable-libxvid --enable-libzimg --enable-libzmq --enable-libzvbi --enable-lv2 --enable-omx --enable-openal --enable-opencl --enable-opengl --enable-sdl2 --enable-pocketsphinx --enable-librsvg --enable-libmfx --enable-libdc1394 --enable-libdrm --enable-libiec61883 --enable-chromaprint --enable-frei0r --enable-libx264 --enable-shared
  libavutil      56. 70.100 / 56. 70.100
  libavcodec     58.134.100 / 58.134.100
  libavformat    58. 76.100 / 58. 76.100
  libavdevice    58. 13.100 / 58. 13.100
  libavfilter     7.110.100 /  7.110.100
  libswscale      5.  9.100 /  5.  9.100
  libswresample   3.  9.100 /  3.  9.100
  libpostproc    55.  9.100 / 55.  9.100
[flv @ 0x55b57aa3afc0] Auto-inserting h264_mp4toannexb bitstream filter
Input #0, concat, from '/storage/32426326/20250703/32426326-20250703-141116-797.all.concat.txt':
  Duration: N/A, start: 0.000000, bitrate: 10436 kb/s
  Stream #0:0: Video: h264 (High), yuv420p(tv, bt709, progressive), 2560x1440 [SAR 1:1 DAR 16:9], 10240 kb/s, 60 fps, 59.94 tbr, 1k tbn, 120 tbc
  Stream #0:1: Audio: aac (LC), 48000 Hz, stereo, fltp, 196 kb/s
Output #0, flv, to '/storage/32426326/20250703/32426326-20250703-141116-797.all.flv':
  Metadata:
    encoder         : Lavf58.76.100
  Stream #0:0: Video: h264 (High) ([7][0][0][0] / 0x0007), yuv420p(tv, bt709, progressive), 2560x1440 [SAR 1:1 DAR 16:9], q=2-31, 10240 kb/s, 60 fps, 59.94 tbr, 1k tbn, 1k tbc
  Stream #0:1: Audio: aac (LC) ([10][0][0][0] / 0x000A), 48000 Hz, stereo, fltp, 196 kb/s
Stream mapping:
  Stream #0:0 -> #0:0 (copy)
  Stream #0:1 -> #0:1 (copy)
Press [q] to stop, [?] for help
frame=    1 fps=0.0 q=-1.0 size=       0kB time=00:00:00.00 bitrate=N/A speed=   0x    frame= 4430 fps=0.0 q=-1.0 size=   35584kB time=00:01:13.96 bitrate=3941.1kbits/s speed= 148x    frame= 7025 fps=7015 q=-1.0 size=   73216kB time=00:01:57.14 bitrate=5119.9kbits/s speed= 117x    frame= 8952 fps=5962 q=-1.0 size=  110080kB time=00:02:29.26 bitrate=6041.3kbits/s speed=99.4x    frame=10902 fps=5443 q=-1.0 size=  147712kB time=00:03:01.73 bitrate=6658.3kbits/s speed=90.7x    frame=12968 fps=5181 q=-1.0 size=  184576kB time=00:03:36.14 bitrate=6995.6kbits/s speed=86.3x    frame=14775 fps=4919 q=-1.0 size=  222208kB time=00:04:06.23 bitrate=7392.7kbits/s speed=  82x    frame=16575 fps=4731 q=-1.0 size=  259584kB time=00:04:36.18 bitrate=7699.6kbits/s speed=78.8x    frame=18358 fps=4584 q=-1.0 size=  296704kB time=00:05:05.88 bitrate=7946.1kbits/s speed=76.4x    frame=20196 fps=4483 q=-1.0 size=  334848kB time=00:05:36.50 bitrate=8151.7kbits/s speed=74.7x    frame=22042 fps=4404 q=-1.0 size=  373248kB time=00:06:07.24 bitrate=8325.9kbits/s speed=73.4x    frame=23787 fps=4321 q=-1.0 size=  409856kB time=00:06:36.35 bitrate=8471.1kbits/s speed=  72x    frame=25661 fps=4273 q=-1.0 size=  448512kB time=00:07:07.55 bitrate=8593.6kbits/s speed=71.2x    frame=27511 fps=4228 q=-1.0 size=  487168kB time=00:07:38.34 bitrate=8707.2kbits/s speed=70.4x    frame=29204 fps=4168 q=-1.0 size=  522240kB time=00:08:06.57 bitrate=8792.5kbits/s speed=69.4x    frame=30994 fps=4128 q=-1.0 size=  559360kB time=00:08:36.37 bitrate=8873.9kbits/s speed=68.8x    frame=32783 fps=4094 q=-1.0 size=  596480kB time=00:09:06.17 bitrate=8946.5kbits/s speed=68.2x    frame=34532 fps=4059 q=-1.0 size=  632832kB time=00:09:35.29 bitrate=9011.2kbits/s speed=67.6x    frame=36462 fps=4047 q=-1.0 size=  672768kB time=00:10:07.44 bitrate=9073.0kbits/s speed=67.4x    frame=38349 fps=4033 q=-1.0 size=  711936kB time=00:10:38.86 bitrate=9129.0kbits/s speed=67.2x    frame=40294 fps=4025 q=-1.0 size=  752384kB time=00:11:11.28 bitrate=9181.7kbits/s speed=67.1x    frame=42191 fps=4014 q=-1.0 size=  791808kB time=00:11:42.88 bitrate=9228.4kbits/s speed=66.9x    frame=43926 fps=3989 q=-1.0 size=  827904kB time=00:12:11.75 bitrate=9268.4kbits/s speed=66.5x    frame=45866 fps=3984 q=-1.0 size=  866816kB time=00:12:44.10 bitrate=9293.1kbits/s speed=66.4x    frame=48052 fps=4001 q=-1.0 size=  907008kB time=00:13:20.51 bitrate=9281.7kbits/s speed=66.6x    frame=50146 fps=4008 q=-1.0 size=  943616kB time=00:13:55.39 bitrate=9253.2kbits/s speed=66.8x    frame=52093 fps=4003 q=-1.0 size=  984320kB time=00:14:27.84 bitrate=9291.5kbits/s speed=66.7x    frame=53851 fps=3985 q=-1.0 size= 1020416kB time=00:14:57.13 bitrate=9317.8kbits/s speed=66.4x    frame=55789 fps=3981 q=-1.0 size= 1060608kB time=00:15:29.41 bitrate=9348.3kbits/s speed=66.3x    frame=57699 fps=3976 q=-1.0 size= 1100544kB time=00:16:01.23 bitrate=9379.2kbits/s speed=66.2x    frame=59666 fps=3974 q=-1.0 size= 1141504kB time=00:16:34.00 bitrate=9407.6kbits/s speed=66.2x    frame=61677 fps=3976 q=-1.0 size= 1183488kB time=00:17:07.49 bitrate=9435.7kbits/s speed=66.2x    frame=63633 fps=3974 q=-1.0 size= 1223680kB time=00:17:40.06 bitrate=9456.4kbits/s speed=66.2x    frame=65441 fps=3963 q=-1.0 size= 1261568kB time=00:18:10.20 bitrate=9479.6kbits/s speed=  66x    frame=67433 fps=3963 q=-1.0 size= 1302784kB time=00:18:43.35 bitrate=9500.5kbits/s speed=  66x    frame=69289 fps=3956 q=-1.0 size= 1341440kB time=00:19:14.29 bitrate=9520.2kbits/s speed=65.9x    frame=70990 fps=3941 q=-1.0 size= 1376768kB time=00:19:42.63 bitrate=9536.8kbits/s speed=65.6x    frame=72873 fps=3936 q=-1.0 size= 1415936kB time=00:20:13.98 bitrate=9554.8kbits/s speed=65.6x    frame=74906 fps=3939 q=-1.0 size= 1453312kB time=00:20:47.83 bitrate=9541.0kbits/s speed=65.6x    frame=76762 fps=3933 q=-1.0 size= 1491712kB time=00:21:18.73 bitrate=9556.4kbits/s speed=65.5x    frame=78874 fps=3941 q=-1.0 size= 1529856kB time=00:21:53.91 bitrate=9538.3kbits/s speed=65.6x    frame=80698 fps=3933 q=-1.0 size= 1567744kB time=00:22:24.28 bitrate=9553.8kbits/s speed=65.5x    frame=82577 fps=3929 q=-1.0 size= 1606656kB time=00:22:55.55 bitrate=9568.3kbits/s speed=65.5x    frame=84365 fps=3921 q=-1.0 size= 1643776kB time=00:23:25.35 bitrate=9581.8kbits/s speed=65.3x    frame=86185 fps=3914 q=-1.0 size= 1681664kB time=00:23:55.66 bitrate=9595.7kbits/s speed=65.2x    frame=88018 fps=3909 q=-1.0 size= 1719552kB time=00:24:26.21 bitrate=9607.5kbits/s speed=65.1x    frame=89857 fps=3904 q=-1.0 size= 1758208kB time=00:24:56.86 bitrate=9622.3kbits/s speed=  65x    frame=91864 fps=3906 q=-1.0 size= 1799424kB time=00:25:30.28 bitrate=9632.8kbits/s speed=65.1x    frame=93852 fps=3908 q=-1.0 size= 1840896kB time=00:26:03.37 bitrate=9646.2kbits/s speed=65.1x    frame=95666 fps=3902 q=-1.0 size= 1878528kB time=00:26:33.58 bitrate=9656.8kbits/s speed=  65x    frame=97787 fps=3909 q=-1.0 size= 1922304kB time=00:27:08.94 bitrate=9667.3kbits/s speed=65.1x    frame=99853 fps=3913 q=-1.0 size= 1965312kB time=00:27:43.35 bitrate=9679.1kbits/s speed=65.2x    frame=101590 fps=3904 q=-1.0 size= 2001664kB time=00:28:12.29 bitrate=9689.6kbits/s speed=  65x    frame=103635 fps=3908 q=-1.0 size= 2043904kB time=00:28:46.35 bitrate=9698.8kbits/s speed=65.1x    frame=105585 fps=3908 q=-1.0 size= 2084608kB time=00:29:18.82 bitrate=9709.4kbits/s speed=65.1x    frame=107430 fps=3904 q=-1.0 size= 2123008kB time=00:29:49.56 bitrate=9718.4kbits/s speed=  65x    frame=109553 fps=3910 q=-1.0 size= 2165504kB time=00:30:24.90 bitrate=9720.9kbits/s speed=65.1x    frame=111607 fps=3913 q=-1.0 size= 2203904kB time=00:30:59.12 bitrate=9711.2kbits/s speed=65.2x    frame=113975 fps=3927 q=-1.0 size= 2246400kB time=00:31:38.54 bitrate=9693.0kbits/s speed=65.4x    frame=116000 fps=3929 q=-1.0 size= 2288384kB time=00:32:12.29 bitrate=9701.6kbits/s speed=65.5x    frame=117855 fps=3926 q=-1.0 size= 2327040kB time=00:32:43.19 bitrate=9710.2kbits/s speed=65.4x    frame=119903 fps=3928 q=-1.0 size= 2369280kB time=00:33:17.28 bitrate=9717.8kbits/s speed=65.4x    frame=121906 fps=3930 q=-1.0 size= 2411008kB time=00:33:50.67 bitrate=9726.3kbits/s speed=65.5x    frame=123789 fps=3927 q=-1.0 size= 2450176kB time=00:34:22.00 bitrate=9734.2kbits/s speed=65.4x    frame=125844 fps=3930 q=-1.0 size= 2493184kB time=00:34:56.25 bitrate=9743.2kbits/s speed=65.5x    frame=127711 fps=3927 q=-1.0 size= 2531584kB time=00:35:27.34 bitrate=9748.7kbits/s speed=65.4x    frame=129611 fps=3925 q=-1.0 size= 2571264kB time=00:35:58.99 bitrate=9756.3kbits/s speed=65.4x    frame=131636 fps=3927 q=-1.0 size= 2613248kB time=00:36:32.72 bitrate=9763.1kbits/s speed=65.4x    frame=133483 fps=3923 q=-1.0 size= 2651648kB time=00:37:03.47 bitrate=9769.5kbits/s speed=65.4x    frame=135410 fps=3922 q=-1.0 size= 2691840kB time=00:37:35.55 bitrate=9776.6kbits/s speed=65.3x    frame=137489 fps=3925 q=-1.0 size= 2735104kB time=00:38:10.17 bitrate=9783.5kbits/s speed=65.4x    frame=139194 fps=3918 q=-1.0 size= 2770432kB time=00:38:38.59 bitrate=9788.4kbits/s speed=65.3x    frame=141202 fps=3919 q=-1.0 size= 2812416kB time=00:39:12.02 bitrate=9795.5kbits/s speed=65.3x    frame=143130 fps=3919 q=-1.0 size= 2852352kB time=00:39:44.15 bitrate=9800.7kbits/s speed=65.3x    frame=145471 fps=3929 q=-1.0 size= 2895104kB time=00:40:23.16 bitrate=9787.5kbits/s speed=65.4x    frame=147535 fps=3931 q=-1.0 size= 2938112kB time=00:40:57.54 bitrate=9793.9kbits/s speed=65.5x    frame=149916 fps=3942 q=-1.0 size= 2979584kB time=00:41:37.20 bitrate=9774.4kbits/s speed=65.7x    frame=151907 fps=3943 q=-1.0 size= 3021056kB time=00:42:10.31 bitrate=9780.8kbits/s speed=65.7x    frame=153786 fps=3940 q=-1.0 size= 3059968kB time=00:42:41.63 bitrate=9785.6kbits/s speed=65.6x    frame=155507 fps=3934 q=-1.0 size= 3095552kB time=00:43:10.32 bitrate=9789.8kbits/s speed=65.5x    frame=157494 fps=3935 q=-1.0 size= 3137024kB time=00:43:43.39 bitrate=9795.9kbits/s speed=65.5x    frame=159283 fps=3930 q=-1.0 size= 3174144kB time=00:44:13.22 bitrate=9800.4kbits/s speed=65.5x    frame=161163 fps=3928 q=-1.0 size= 3213312kB time=00:44:44.53 bitrate=9805.6kbits/s speed=65.4x    frame=162954 fps=3924 q=-1.0 size= 3250432kB time=00:45:14.37 bitrate=9809.8kbits/s speed=65.4x    frame=165096 fps=3928 q=-1.0 size= 3288064kB time=00:45:49.98 bitrate=9794.9kbits/s speed=65.4x    frame=167434 fps=3937 q=-1.0 size= 3327744kB time=00:46:28.94 bitrate=9774.6kbits/s speed=65.6x    frame=169425 fps=3937 q=-1.0 size= 3366912kB time=00:47:02.08 bitrate=9773.5kbits/s speed=65.6x    frame=171642 fps=3943 q=-1.0 size= 3403776kB time=00:47:39.01 bitrate=9752.9kbits/s speed=65.7x    frame=173469 fps=3940 q=-1.0 size= 3441408kB time=00:48:09.45 bitrate=9756.9kbits/s speed=65.6x    frame=175310 fps=3937 q=-1.0 size= 3479552kB time=00:48:40.10 bitrate=9761.5kbits/s speed=65.6x    frame=177084 fps=3932 q=-1.0 size= 3516672kB time=00:49:09.65 bitrate=9766.8kbits/s speed=65.5x    frame=179104 fps=3934 q=-1.0 size= 3558656kB time=00:49:43.30 bitrate=9771.9kbits/s speed=65.5x    frame=180759 fps=3927 q=-1.0 size= 3593216kB time=00:50:10.86 bitrate=9776.5kbits/s speed=65.4x    frame=182534 fps=3923 q=-1.0 size= 3629824kB time=00:50:40.43 bitrate=9780.0kbits/s speed=65.3x    frame=184452 fps=3922 q=-1.0 size= 3669760kB time=00:51:12.38 bitrate=9784.8kbits/s speed=65.3x    frame=186248 fps=3918 q=-1.0 size= 3706880kB time=00:51:42.27 bitrate=9788.5kbits/s speed=65.3x    frame=187967 fps=3913 q=-1.0 size= 3742720kB time=00:52:10.89 bitrate=9792.8kbits/s speed=65.2x    frame=189889 fps=3912 q=-1.0 size= 3782656kB time=00:52:42.94 bitrate=9797.0kbits/s speed=65.2x    frame=191827 fps=3912 q=-1.0 size= 3822848kB time=00:53:15.20 bitrate=9801.2kbits/s speed=65.2x    frame=193667 fps=3910 q=-1.0 size= 3861248kB time=00:53:45.86 bitrate=9805.6kbits/s speed=65.1x    frame=195708 fps=3911 q=-1.0 size= 3903488kB time=00:54:19.86 bitrate=9809.4kbits/s speed=65.1x    frame=197617 fps=3910 q=-1.0 size= 3943168kB time=00:54:51.62 bitrate=9813.5kbits/s speed=65.1x    frame=199928 fps=3917 q=-1.0 size= 3986944kB time=00:55:30.16 bitrate=9807.6kbits/s speed=65.2x    frame=202179 fps=3923 q=-1.0 size= 4027136kB time=00:56:07.61 bitrate=9796.3kbits/s speed=65.3x    frame=204072 fps=3922 q=-1.0 size= 4066560kB time=00:56:39.14 bitrate=9800.5kbits/s speed=65.3x    frame=206109 fps=3923 q=-1.0 size= 4108800kB time=00:57:13.10 bitrate=9804.3kbits/s speed=65.3x    frame=207958 fps=3921 q=-1.0 size= 4147200kB time=00:57:43.85 bitrate=9808.1kbits/s speed=65.3x    frame=209896 fps=3920 q=-1.0 size= 4187392kB time=00:58:16.13 bitrate=9811.7kbits/s speed=65.3x    frame=211890 fps=3921 q=-1.0 size= 4228864kB time=00:58:49.34 bitrate=9815.7kbits/s speed=65.3x    frame=213658 fps=3918 q=-1.0 size= 4265472kB time=00:59:18.77 bitrate=9818.8kbits/s speed=65.3x    frame=215681 fps=3919 q=-1.0 size= 4307712kB time=00:59:52.51 bitrate=9822.9kbits/s speed=65.3x    frame=217649 fps=3919 q=-1.0 size= 4348416kB time=01:00:25.25 bitrate=9826.1kbits/s speed=65.3x    frame=219350 fps=3914 q=-1.0 size= 4383744kB time=01:00:53.59 bitrate=9829.1kbits/s speed=65.2x    frame=221626 fps=3920 q=-1.0 size= 4424960kB time=01:01:31.48 bitrate=9819.7kbits/s speed=65.3x    frame=223922 fps=3926 q=-1.0 size= 4464384kB time=01:02:09.75 bitrate=9805.5kbits/s speed=65.4x    frame=225917 fps=3926 q=-1.0 size= 4505856kB time=01:02:42.97 bitrate=9809.3kbits/s speed=65.4x    frame=227913 fps=3927 q=-1.0 size= 4547328kB time=01:03:16.21 bitrate=9812.9kbits/s speed=65.4x    frame=229695 fps=3924 q=-1.0 size= 4584448kB time=01:03:45.82 bitrate=9816.4kbits/s speed=65.4x    frame=231739 fps=3925 q=-1.0 size= 4626944kB time=01:04:19.89 bitrate=9819.9kbits/s speed=65.4x    frame=233723 fps=3925 q=-1.0 size= 4668160kB time=01:04:52.94 bitrate=9823.3kbits/s speed=65.4x    frame=235558 fps=3923 q=-1.0 size= 4706304kB time=01:05:23.50 bitrate=9826.4kbits/s speed=65.3x    frame=237515 fps=3923 q=-1.0 size= 4747008kB time=01:05:56.11 bitrate=9829.7kbits/s speed=65.3x    frame=239515 fps=3924 q=-1.0 size= 4788480kB time=01:06:29.41 bitrate=9832.8kbits/s speed=65.4x    frame=241387 fps=3922 q=-1.0 size= 4827392kB time=01:07:00.59 bitrate=9835.9kbits/s speed=65.3x    frame=243396 fps=3923 q=-1.0 size= 4869120kB time=01:07:34.05 bitrate=9839.0kbits/s speed=65.3x    frame=245253 fps=3921 q=-1.0 size= 4907776kB time=01:08:04.99 bitrate=9842.0kbits/s speed=65.3x    frame=247158 fps=3920 q=-1.0 size= 4947200kB time=01:08:36.72 bitrate=9844.6kbits/s speed=65.3x    frame=249294 fps=3923 q=-1.0 size= 4987392kB time=01:09:12.29 bitrate=9839.6kbits/s speed=65.3x    frame=251642 fps=3929 q=-1.0 size= 5023488kB time=01:09:51.40 bitrate=9818.3kbits/s speed=65.4x    frame=253503 fps=3928 q=-1.0 size= 5061888kB time=01:10:22.39 bitrate=9820.7kbits/s speed=65.4x    frame=255427 fps=3927 q=-1.0 size= 5101824kB time=01:10:54.45 bitrate=9823.6kbits/s speed=65.4x    frame=257166 fps=3924 q=-1.0 size= 5138176kB time=01:11:23.42 bitrate=9826.7kbits/s speed=65.4x    frame=259072 fps=3923 q=-1.0 size= 5177600kB time=01:11:55.19 bitrate=9829.2kbits/s speed=65.3x    frame=260772 fps=3919 q=-1.0 size= 5213184kB time=01:12:23.50 bitrate=9832.2kbits/s speed=65.3x    frame=262571 fps=3916 q=-1.0 size= 5250304kB time=01:12:53.47 bitrate=9834.4kbits/s speed=65.2x    frame=264440 fps=3915 q=-1.0 size= 5289216kB time=01:13:24.60 bitrate=9837.3kbits/s speed=65.2x    frame=266268 fps=3913 q=-1.0 size= 5327104kB time=01:13:55.05 bitrate=9839.7kbits/s speed=65.2x    frame=268196 fps=3913 q=-1.0 size= 5367296kB time=01:14:27.16 bitrate=9842.7kbits/s speed=65.2x    frame=270249 fps=3914 q=-1.0 size= 5410048kB time=01:15:01.32 bitrate=9845.8kbits/s speed=65.2x    frame=272004 fps=3911 q=-1.0 size= 5446400kB time=01:15:30.58 bitrate=9847.9kbits/s speed=65.1x    frame=274088 fps=3913 q=-1.0 size= 5489664kB time=01:16:05.27 bitrate=9850.7kbits/s speed=65.2x    frame=275959 fps=3912 q=-1.0 size= 5528576kB time=01:16:36.47 bitrate=9853.2kbits/s speed=65.2x    frame=277789 fps=3910 q=-1.0 size= 5566720kB time=01:17:06.95 bitrate=9855.9kbits/s speed=65.1x    frame=279818 fps=3911 q=-1.0 size= 5608704kB time=01:17:40.76 bitrate=9858.2kbits/s speed=65.1x    frame=281814 fps=3911 q=-1.0 size= 5648896kB time=01:18:13.99 bitrate=9858.5kbits/s speed=65.1x    frame=283860 fps=3913 q=-1.0 size= 5687296kB time=01:18:48.10 bitrate=9853.9kbits/s speed=65.2x    frame=286245 fps=3919 q=-1.0 size= 5730560kB time=01:19:27.83 bitrate=9846.1kbits/s speed=65.3x    frame=288031 fps=3916 q=-1.0 size= 5767424kB time=01:19:57.56 bitrate=9848.1kbits/s speed=65.2x    frame=290135 fps=3918 q=-1.0 size= 5811456kB time=01:20:32.63 bitrate=9851.2kbits/s speed=65.3x    frame=292157 fps=3919 q=-1.0 size= 5853184kB time=01:21:06.32 bitrate=9853.3kbits/s speed=65.3x    frame=293966 fps=3917 q=-1.0 size= 5890816kB time=01:21:36.43 bitrate=9855.7kbits/s speed=65.2x    frame=295877 fps=3916 q=-1.0 size= 5930496kB time=01:22:08.26 bitrate=9858.0kbits/s speed=65.2x    frame=297677 fps=3914 q=-1.0 size= 5967872kB time=01:22:38.21 bitrate=9860.2kbits/s speed=65.2x    frame=299415 fps=3911 q=-1.0 size= 6003968kB time=01:23:07.18 bitrate=9862.2kbits/s speed=65.1x    frame=301334 fps=3911 q=-1.0 size= 6043904kB time=01:23:39.11 bitrate=9864.6kbits/s speed=65.1x    frame=303054 fps=3908 q=-1.0 size= 6079488kB time=01:24:07.77 bitrate=9866.4kbits/s speed=65.1x    frame=304712 fps=3904 q=-1.0 size= 6114304kB time=01:24:35.39 bitrate=9868.9kbits/s speed=  65x    frame=306555 fps=3902 q=-1.0 size= 6152448kB time=01:25:06.11 bitrate=9870.7kbits/s speed=  65x    frame=308247 fps=3899 q=-1.0 size= 6187520kB time=01:25:34.27 bitrate=9872.5kbits/s speed=64.9x    frame=310376 fps=3901 q=-1.0 size= 6226944kB time=01:26:09.69 bitrate=9867.3kbits/s speed=  65x    frame=312318 fps=3901 q=-1.0 size= 6267136kB time=01:26:42.06 bitrate=9869.2kbits/s speed=  65x    frame=314647 fps=3906 q=-1.0 size= 6305024kB time=01:27:20.85 bitrate=9855.4kbits/s speed=65.1x    frame=316535 fps=3905 q=-1.0 size= 6344192kB time=01:27:52.31 bitrate=9857.5kbits/s speed=  65x    frame=318396 fps=3904 q=-1.0 size= 6382848kB time=01:28:23.32 bitrate=9859.5kbits/s speed=  65x    frame=320340 fps=3904 q=-1.0 size= 6423296kB time=01:28:55.71 bitrate=9861.8kbits/s speed=  65x    frame=322218 fps=3903 q=-1.0 size= 6462464kB time=01:29:26.97 bitrate=9864.1kbits/s speed=  65x    frame=324115 fps=3902 q=-1.0 size= 6501632kB time=01:29:58.56 bitrate=9865.8kbits/s speed=  65x    frame=325990 fps=3901 q=-1.0 size= 6540800kB time=01:30:29.80 bitrate=9868.2kbits/s speed=  65x    frame=327935 fps=3901 q=-1.0 size= 6580992kB time=01:31:02.17 bitrate=9870.0kbits/s speed=  65x    frame=329779 fps=3900 q=-1.0 size= 6619392kB time=01:31:32.88 bitrate=9872.1kbits/s speed=  65x    frame=331729 fps=3900 q=-1.0 size= 6659840kB time=01:32:05.36 bitrate=9874.0kbits/s speed=  65x    frame=333544 fps=3898 q=-1.0 size= 6697728kB time=01:32:35.60 bitrate=9876.1kbits/s speed=64.9x    frame=335430 fps=3898 q=-1.0 size= 6736896kB time=01:33:07.04 bitrate=9878.0kbits/s speed=64.9x    frame=337336 fps=3897 q=-1.0 size= 6776320kB time=01:33:38.79 bitrate=9879.6kbits/s speed=64.9x    frame=339150 fps=3896 q=-1.0 size= 6813952kB time=01:34:08.98 bitrate=9881.4kbits/s speed=64.9x    frame=340913 fps=3894 q=-1.0 size= 6850560kB time=01:34:38.33 bitrate=9883.1kbits/s speed=64.9x    frame=342870 fps=3894 q=-1.0 size= 6891264kB time=01:35:10.92 bitrate=9885.1kbits/s speed=64.9x    frame=344954 fps=3895 q=-1.0 size= 6928640kB time=01:35:45.62 bitrate=9878.7kbits/s speed=64.9x    frame=346917 fps=3895 q=-1.0 size= 6969600kB time=01:36:18.36 bitrate=9880.8kbits/s speed=64.9x    frame=349187 fps=3899 q=-1.0 size= 7010560kB time=01:36:56.15 bitrate=9874.3kbits/s speed=64.9x    frame=351094 fps=3898 q=-1.0 size= 7049984kB time=01:37:27.93 bitrate=9875.9kbits/s speed=64.9x    frame=353039 fps=3898 q=-1.0 size= 7090432kB time=01:38:00.36 bitrate=9877.8kbits/s speed=64.9x    frame=354756 fps=3896 q=-1.0 size= 7126272kB time=01:38:28.94 bitrate=9879.7kbits/s speed=64.9x    frame=356467 fps=3893 q=-1.0 size= 7161600kB time=01:38:57.46 bitrate=9881.0kbits/s speed=64.8x    frame=358322 fps=3892 q=-1.0 size= 7200256kB time=01:39:28.36 bitrate=9882.9kbits/s speed=64.8x    frame=360045 fps=3890 q=-1.0 size= 7236096kB time=01:39:57.06 bitrate=9884.5kbits/s speed=64.8x    frame=361925 fps=3889 q=-1.0 size= 7275008kB time=01:40:28.38 bitrate=9886.0kbits/s speed=64.8x    frame=363843 fps=3889 q=-1.0 size= 7314944kB time=01:41:00.30 bitrate=9888.0kbits/s speed=64.8x    frame=365739 fps=3888 q=-1.0 size= 7354368kB time=01:41:31.92 bitrate=9889.6kbits/s speed=64.8x    frame=367859 fps=3890 q=-1.0 size= 7394560kB time=01:42:07.23 bitrate=9886.4kbits/s speed=64.8x    frame=369805 fps=3890 q=-1.0 size= 7435008kB time=01:42:39.62 bitrate=9888.2kbits/s speed=64.8x    frame=372131 fps=3894 q=-1.0 size= 7474432kB time=01:43:18.35 bitrate=9878.5kbits/s speed=64.9x    frame=374038 fps=3894 q=-1.0 size= 7513856kB time=01:43:50.15 bitrate=9879.9kbits/s speed=64.9x    frame=375777 fps=3891 q=-1.0 size= 7550208kB time=01:44:19.12 bitrate=9881.8kbits/s speed=64.8x    frame=377690 fps=3891 q=-1.0 size= 7589632kB time=01:44:50.94 bitrate=9883.1kbits/s speed=64.8x    frame=379601 fps=3891 q=-1.0 size= 7629568kB time=01:45:22.76 bitrate=9885.1kbits/s speed=64.8x    frame=381550 fps=3891 q=-1.0 size= 7669760kB time=01:45:55.24 bitrate=9886.4kbits/s speed=64.8x    frame=383409 fps=3890 q=-1.0 size= 7708672kB time=01:46:26.18 bitrate=9888.4kbits/s speed=64.8x    frame=385331 fps=3890 q=-1.0 size= 7748352kB time=01:46:58.23 bitrate=9889.7kbits/s speed=64.8x    frame=387145 fps=3888 q=-1.0 size= 7786240kB time=01:47:28.39 bitrate=9891.6kbits/s speed=64.8x    frame=389117 fps=3888 q=-1.0 size= 7827200kB time=01:48:01.26 bitrate=9893.2kbits/s speed=64.8x    frame=390989 fps=3888 q=-1.0 size= 7865856kB time=01:48:32.39 bitrate=9894.5kbits/s speed=64.8x    frame=392901 fps=3887 q=-1.0 size= 7905792kB time=01:49:04.24 bitrate=9896.4kbits/s speed=64.7x    frame=394817 fps=3887 q=-1.0 size= 7945472kB time=01:49:36.18 bitrate=9897.7kbits/s speed=64.7x    frame=396603 fps=3886 q=-1.0 size= 7982336kB time=01:50:05.92 bitrate=9898.9kbits/s speed=64.7x    frame=398461 fps=3885 q=-1.0 size= 8021248kB time=01:50:36.88 bitrate=9900.7kbits/s speed=64.7x    frame=400406 fps=3885 q=-1.0 size= 8061696kB time=01:51:09.25 bitrate=9902.4kbits/s speed=64.7x    frame=402230 fps=3884 q=-1.0 size= 8099584kB time=01:51:39.64 bitrate=9903.8kbits/s speed=64.7x    frame=404177 fps=3884 q=-1.0 size= 8140032kB time=01:52:12.06 bitrate=9905.3kbits/s speed=64.7x    frame=406679 fps=3889 q=-1.0 size= 8186112kB time=01:52:53.74 bitrate=9900.1kbits/s speed=64.8x    frame=408643 fps=3889 q=-1.0 size= 8226816kB time=01:53:26.43 bitrate=9901.5kbits/s speed=64.8x    frame=410945 fps=3892 q=-1.0 size= 8267776kB time=01:54:04.82 bitrate=9895.0kbits/s speed=64.8x    frame=412683 fps=3891 q=-1.0 size= 8303872kB time=01:54:33.78 bitrate=9896.3kbits/s speed=64.8x    frame=414385 fps=3888 q=-1.0 size= 8339200kB time=01:55:02.09 bitrate=9897.7kbits/s speed=64.8x    frame=416157 fps=3887 q=-1.0 size= 8376064kB time=01:55:31.65 bitrate=9899.0kbits/s speed=64.7x    frame=418029 fps=3886 q=-1.0 size= 8410880kB time=01:56:02.83 bitrate=9895.7kbits/s speed=64.7x    frame=419711 fps=3884 q=-1.0 size= 8445952kB time=01:56:30.85 bitrate=9897.1kbits/s speed=64.7x    frame=422039 fps=3887 q=-1.0 size= 8484864kB time=01:57:09.61 bitrate=9887.9kbits/s speed=64.7x    frame=423722 fps=3885 q=-1.0 size= 8519424kB time=01:57:37.66 bitrate=9888.7kbits/s speed=64.7x    frame=425599 fps=3884 q=-1.0 size= 8558336kB time=01:58:08.90 bitrate=9890.1kbits/s speed=64.7x    frame=427493 fps=3884 q=-1.0 size= 8598016kB time=01:58:40.49 bitrate=9891.9kbits/s speed=64.7x    frame=429341 fps=3883 q=-1.0 size= 8636160kB time=01:59:11.28 bitrate=9893.0kbits/s speed=64.7x    frame=431287 fps=3883 q=-1.0 size= 8676864kB time=01:59:43.67 bitrate=9894.8kbits/s speed=64.7x    frame=433170 fps=3882 q=-1.0 size= 8716032kB time=02:00:15.03 bitrate=9896.2kbits/s speed=64.7x    frame=435130 fps=3882 q=-1.0 size= 8756480kB time=02:00:47.67 bitrate=9897.4kbits/s speed=64.7x    frame=437059 fps=3882 q=-1.0 size= 8796672kB time=02:01:19.79 bitrate=9898.9kbits/s speed=64.7x    frame=438819 fps=3881 q=-1.0 size= 8833280kB time=02:01:49.10 bitrate=9900.3kbits/s speed=64.6x    frame=440737 fps=3880 q=-1.0 size= 8872960kB time=02:02:21.08 bitrate=9901.4kbits/s speed=64.6x    frame=442691 fps=3881 q=-1.0 size= 8913408kB time=02:02:53.61 bitrate=9902.7kbits/s speed=64.6x    frame=444579 fps=3880 q=-1.0 size= 8952832kB time=02:03:25.06 bitrate=9904.2kbits/s speed=64.6x    frame=446546 fps=3880 q=-1.0 size= 8993792kB time=02:03:57.82 bitrate=9905.7kbits/s speed=64.6x    frame=448612 fps=3881 q=-1.0 size= 9032960kB time=02:04:32.26 bitrate=9903.0kbits/s speed=64.7x    frame=452500 fps=3898 q=-1.0 size= 9068032kB time=02:05:37.03 bitrate=9856.0kbits/s speed=64.9x    frame=455514 fps=3907 q=-1.0 size= 9107200kB time=02:06:27.18 bitrate=9833.2kbits/s speed=65.1x    frame=457594 fps=3908 q=-1.0 size= 9143808kB time=02:07:01.82 bitrate=9827.8kbits/s speed=65.1x    frame=460355 fps=3915 q=-1.0 size= 9182976kB time=02:07:47.79 bitrate=9810.8kbits/s speed=65.2x    frame=462958 fps=3921 q=-1.0 size= 9222400kB time=02:08:31.19 bitrate=9797.4kbits/s speed=65.3x    frame=466748 fps=3936 q=-1.0 size= 9260544kB time=02:09:34.33 bitrate=9758.1kbits/s speed=65.6x    frame=469083 fps=3939 q=-1.0 size= 9298432kB time=02:10:13.23 bitrate=9749.2kbits/s speed=65.6x    frame=471617 fps=3944 q=-1.0 size= 9338624kB time=02:10:55.45 bitrate=9738.7kbits/s speed=65.7x    frame=474719 fps=3953 q=-1.0 size= 9377024kB time=02:11:47.11 bitrate=9714.9kbits/s speed=65.8x    frame=477083 fps=3956 q=-1.0 size= 9414400kB time=02:12:26.50 bitrate=9705.2kbits/s speed=65.9x    frame=479131 fps=3957 q=-1.0 size= 9449472kB time=02:13:00.60 bitrate=9699.8kbits/s speed=65.9x    frame=481861 fps=3963 q=-1.0 size= 9488384kB time=02:13:46.10 bitrate=9684.5kbits/s speed=  66x    frame=484242 fps=3966 q=-1.0 size= 9528064kB time=02:14:25.77 bitrate=9677.2kbits/s speed=66.1x    frame=486382 fps=3968 q=-1.0 size= 9570304kB time=02:15:01.41 bitrate=9677.3kbits/s speed=66.1x    frame=488520 fps=3969 q=-1.0 size= 9613056kB time=02:15:37.02 bitrate=9678.0kbits/s speed=66.1x    frame=491411 fps=3976 q=-1.0 size= 9654016kB time=02:16:25.20 bitrate=9662.0kbits/s speed=66.2x    frame=495150 fps=3990 q=-1.0 size= 9695488kB time=02:17:27.48 bitrate=9630.3kbits/s speed=66.5x    frame=498834 fps=4004 q=-1.0 size= 9735936kB time=02:18:28.83 bitrate=9599.0kbits/s speed=66.7x    frame=502289 fps=4015 q=-1.0 size= 9773568kB time=02:19:26.40 bitrate=9569.8kbits/s speed=66.9x    frame=505942 fps=4029 q=-1.0 size= 9815040kB time=02:20:27.28 bitrate=9541.0kbits/s speed=67.1x    frame=509343 fps=4040 q=-1.0 size= 9853696kB time=02:21:23.95 bitrate=9514.6kbits/s speed=67.3x    frame=513623 fps=4057 q=-1.0 size= 9894912kB time=02:22:35.26 bitrate=9474.8kbits/s speed=67.6x    frame=516904 fps=4067 q=-1.0 size= 9933568kB time=02:23:29.95 bitrate=9451.4kbits/s speed=67.7x    frame=520169 fps=4077 q=-1.0 size= 9974784kB time=02:24:24.34 bitrate=9431.0kbits/s speed=67.9x    frame=523447 fps=4087 q=-1.0 size=10015744kB time=02:25:18.95 bitrate=9410.4kbits/s speed=68.1x    frame=526833 fps=4097 q=-1.0 size=10057728kB time=02:26:15.34 bitrate=9389.1kbits/s speed=68.2x    frame=530006 fps=4106 q=-1.0 size=10097408kB time=02:27:08.20 bitrate=9369.7kbits/s speed=68.4x    frame=533169 fps=4114 q=-1.0 size=10138368kB time=02:28:00.89 bitrate=9351.9kbits/s speed=68.5x    frame=537028 fps=4128 q=-1.0 size=10178304kB time=02:29:05.19 bitrate=9321.3kbits/s speed=68.8x    frame=540291 fps=4137 q=-1.0 size=10219776kB time=02:29:59.58 bitrate=9302.7kbits/s speed=68.9x    frame=543790 fps=4148 q=-1.0 size=10261760kB time=02:30:57.88 bitrate=9280.8kbits/s speed=69.1x    frame=547873 fps=4163 q=-1.0 size=10300416kB time=02:32:05.91 bitrate=9246.3kbits/s speed=69.3x    frame=552253 fps=4181 q=-1.0 size=10342144kB time=02:33:18.88 bitrate=9210.1kbits/s speed=69.6x    frame=555612 fps=4190 q=-1.0 size=10383360kB time=02:34:14.85 bitrate=9190.9kbits/s speed=69.8x    frame=558739 fps=4198 q=-1.0 size=10419456kB time=02:35:06.96 bitrate=9171.2kbits/s speed=69.9x    frame=562806 fps=4213 q=-1.0 size=10460160kB time=02:36:14.70 bitrate=9140.5kbits/s speed=70.2x    frame=567427 fps=4231 q=-1.0 size=10501888kB time=02:37:31.68 bitrate=9102.2kbits/s speed=70.5x    frame=571224 fps=4244 q=-1.0 size=10538752kB time=02:38:34.96 bitrate=9073.4kbits/s speed=70.7x    frame=573997 fps=4249 q=-1.0 size=10579712kB time=02:39:21.14 bitrate=9064.7kbits/s speed=70.8x    frame=576824 fps=4254 q=-1.0 size=10618368kB time=02:40:08.27 bitrate=9053.2kbits/s speed=70.9x    frame=579584 fps=4259 q=-1.0 size=10658304kB time=02:40:54.23 bitrate=9044.0kbits/s speed=70.9x    frame=582833 fps=4267 q=-1.0 size=10700032kB time=02:41:48.39 bitrate=9028.8kbits/s speed=71.1x    frame=587333 fps=4284 q=-1.0 size=10735104kB time=02:43:03.36 bitrate=8988.9kbits/s speed=71.4x    frame=589925 fps=4287 q=-1.0 size=10772480kB time=02:43:46.52 bitrate=8980.6kbits/s speed=71.4x    frame=592086 fps=4287 q=-1.0 size=10809088kB time=02:44:22.49 bitrate=8978.3kbits/s speed=71.4x    frame=594287 fps=4288 q=-1.0 size=10847744kB time=02:44:59.18 bitrate=8977.0kbits/s speed=71.4x    frame=596641 fps=4289 q=-1.0 size=10887936kB time=02:45:38.41 bitrate=8974.7kbits/s speed=71.4x    frame=600165 fps=4299 q=-1.0 size=10927616kB time=02:46:37.10 bitrate=8954.5kbits/s speed=71.6x    frame=602835 fps=4303 q=-1.0 size=10965760kB time=02:47:21.58 bitrate=8945.9kbits/s speed=71.7x    frame=605519 fps=4307 q=-1.0 size=11004416kB time=02:48:06.31 bitrate=8937.7kbits/s speed=71.7x    frame=608457 fps=4312 q=-1.0 size=11045632kB time=02:48:55.23 bitrate=8927.8kbits/s speed=71.8x    frame=611493 fps=4318 q=-1.0 size=11083776kB time=02:49:45.80 bitrate=8914.2kbits/s speed=71.9x    frame=614474 fps=4324 q=-1.0 size=11124736kB time=02:50:35.46 bitrate=8903.7kbits/s speed=  72x    frame=618563 fps=4338 q=-1.0 size=11164672kB time=02:51:43.55 bitrate=8876.6kbits/s speed=72.3x    frame=621275 fps=4341 q=-1.0 size=11202304kB time=02:52:28.74 bitrate=8867.7kbits/s speed=72.3x    frame=624388 fps=4348 q=-1.0 size=11243776kB time=02:53:20.61 bitrate=8856.1kbits/s speed=72.4x    frame=627348 fps=4353 q=-1.0 size=11286784kB time=02:54:09.94 bitrate=8848.0kbits/s speed=72.5x    frame=630052 fps=4357 q=-1.0 size=11326976kB time=02:54:54.98 bitrate=8841.4kbits/s speed=72.6x    frame=632833 fps=4361 q=-1.0 size=11365376kB time=02:55:41.32 bitrate=8832.4kbits/s speed=72.6x    frame=635611 fps=4365 q=-1.0 size=11400960kB time=02:56:27.58 bitrate=8821.3kbits/s speed=72.7x    frame=638309 fps=4369 q=-1.0 size=11439616kB time=02:57:12.52 bitrate=8813.8kbits/s speed=72.8x    frame=641709 fps=4377 q=-1.0 size=11481344kB time=02:58:09.13 bitrate=8799.1kbits/s speed=72.9x    frame=644956 fps=4384 q=-1.0 size=11527168kB time=02:59:03.25 bitrate=8789.8kbits/s speed=  73x    frame=649504 fps=4400 q=-1.0 size=11568384kB time=03:00:19.03 bitrate=8759.4kbits/s speed=73.3x    frame=652397 fps=4405 q=-1.0 size=11608576kB time=03:01:07.20 bitrate=8750.9kbits/s speed=73.4x    frame=654675 fps=4405 q=-1.0 size=11646464kB time=03:01:45.18 bitrate=8748.9kbits/s speed=73.4x    frame=657335 fps=4408 q=-1.0 size=11688192kB time=03:02:29.50 bitrate=8744.7kbits/s speed=73.4x    frame=659336 fps=4407 q=-1.0 size=11728640kB time=03:03:02.83 bitrate=8748.3kbits/s speed=73.4x    frame=662637 fps=4414 q=-1.0 size=11768576kB time=03:03:57.81 bitrate=8734.4kbits/s speed=73.5x    frame=665494 fps=4419 q=-1.0 size=11808256kB time=03:04:45.42 bitrate=8726.2kbits/s speed=73.6x    frame=667699 fps=4419 q=-1.0 size=11846400kB time=03:05:22.15 bitrate=8725.4kbits/s speed=73.6x    frame=670674 fps=4424 q=-1.0 size=11887104kB time=03:06:11.70 bitrate=8716.6kbits/s speed=73.7x    frame=673571 fps=4428 q=-1.0 size=11926784kB time=03:06:59.95 bitrate=8708.1kbits/s speed=73.8x    frame=676833 fps=4435 q=-1.0 size=11967232kB time=03:07:54.31 bitrate=8695.5kbits/s speed=73.9x    frame=679414 fps=4437 q=-1.0 size=12009472kB time=03:08:37.29 bitrate=8693.0kbits/s speed=73.9x    frame=681636 fps=4437 q=-1.0 size=12051968kB time=03:09:14.29 bitrate=8695.4kbits/s speed=73.9x    frame=683529 fps=4435 q=-1.0 size=12089088kB time=03:09:45.85 bitrate=8698.0kbits/s speed=73.9x    frame=685591 fps=4434 q=-1.0 size=12131072kB time=03:10:20.21 bitrate=8701.9kbits/s speed=73.9x    frame=687726 fps=4434 q=-1.0 size=12173056kB time=03:10:55.76 bitrate=8704.9kbits/s speed=73.9x    frame=689716 fps=4432 q=-1.0 size=12212992kB time=03:11:28.95 bitrate=8708.3kbits/s speed=73.8x    frame=691793 fps=4431 q=-1.0 size=12254208kB time=03:12:03.53 bitrate=8711.4kbits/s speed=73.8x    frame=693750 fps=4430 q=-1.0 size=12292096kB time=03:12:36.15 bitrate=8713.7kbits/s speed=73.8x    frame=696081 fps=4430 q=-1.0 size=12333568kB time=03:13:14.95 bitrate=8713.8kbits/s speed=73.8x    frame=699587 fps=4439 q=-1.0 size=12374016kB time=03:14:13.37 bitrate=8698.6kbits/s speed=73.9x    frame=701707 fps=4438 q=-1.0 size=12411392kB time=03:14:48.72 bitrate=8698.5kbits/s speed=73.9x    frame=703898 fps=4438 q=-1.0 size=12452864kB time=03:15:25.17 bitrate=8700.4kbits/s speed=73.9x    frame=706797 fps=4442 q=-1.0 size=12494848kB time=03:16:13.44 bitrate=8694.0kbits/s speed=  74x    frame=708550 fps=4439 q=-1.0 size=12531200kB time=03:16:42.65 bitrate=8697.7kbits/s speed=73.9x    frame=710847 fps=4440 q=-1.0 size=12575488kB time=03:17:20.89 bitrate=8700.2kbits/s speed=  74x    frame=712867 fps=4438 q=-1.0 size=12616192kB time=03:17:54.55 bitrate=8703.6kbits/s speed=73.9x    frame=714885 fps=4437 q=-1.0 size=12658432kB time=03:18:28.18 bitrate=8708.1kbits/s speed=73.9x    frame=717706 fps=4441 q=-1.0 size=12700672kB time=03:19:15.19 bitrate=8702.8kbits/s speed=  74x    frame=720186 fps=4442 q=-1.0 size=12737280kB time=03:19:56.49 bitrate=8697.9kbits/s speed=  74x    frame=722982 fps=4446 q=-1.0 size=12774912kB time=03:20:43.08 bitrate=8689.8kbits/s speed=74.1x    frame=725583 fps=4448 q=-1.0 size=12814080kB time=03:21:26.42 bitrate=8685.2kbits/s speed=74.1x    frame=728325 fps=4451 q=-1.0 size=12851968kB time=03:22:12.10 bitrate=8678.1kbits/s speed=74.1x    frame=731507 fps=4457 q=-1.0 size=12891648kB time=03:23:05.12 bitrate=8667.0kbits/s speed=74.2x    frame=733861 fps=4458 q=-1.0 size=12931328kB time=03:23:44.33 bitrate=8665.8kbits/s speed=74.3x    frame=736817 fps=4462 q=-1.0 size=12969472kB time=03:24:33.56 bitrate=8656.5kbits/s speed=74.3x    frame=739464 fps=4465 q=-1.0 size=13011712kB time=03:25:17.62 bitrate=8653.6kbits/s speed=74.4x    frame=741616 fps=4464 q=-1.0 size=13049088kB time=03:25:53.49 bitrate=8653.3kbits/s speed=74.4x    frame=743773 fps=4464 q=-1.0 size=13090048kB time=03:26:29.45 bitrate=8655.2kbits/s speed=74.4x    frame=746776 fps=4468 q=-1.0 size=13132544kB time=03:27:19.47 bitrate=8648.4kbits/s speed=74.4x    frame=749193 fps=4470 q=-1.0 size=13170176kB time=03:27:59.73 bitrate=8645.2kbits/s speed=74.5x    frame=752535 fps=4476 q=-1.0 size=13211904kB time=03:28:55.42 bitrate=8634.1kbits/s speed=74.6x    frame=754859 fps=4477 q=-1.0 size=13252352kB time=03:29:34.13 bitrate=8633.9kbits/s speed=74.6x    frame=757151 fps=4477 q=-1.0 size=13288448kB time=03:30:12.29 bitrate=8631.2kbits/s speed=74.6x    frame=759578 fps=4478 q=-1.0 size=13324800kB time=03:30:52.73 bitrate=8627.1kbits/s speed=74.6x    frame=761860 fps=4478 q=-1.0 size=13363200kB time=03:31:30.73 bitrate=8626.1kbits/s speed=74.6x    frame=764390 fps=4480 q=-1.0 size=13400320kB time=03:32:12.89 bitrate=8621.4kbits/s speed=74.6x    frame=766945 fps=4482 q=-1.0 size=13438976kB time=03:32:55.46 bitrate=8617.5kbits/s speed=74.7x    frame=769492 fps=4484 q=-1.0 size=13474304kB time=03:33:37.90 bitrate=8611.5kbits/s speed=74.7x    frame=772783 fps=4490 q=-1.0 size=13510656kB time=03:34:32.71 bitrate=8598.0kbits/s speed=74.8x    frame=776052 fps=4496 q=-1.0 size=13545472kB time=03:35:27.17 bitrate=8583.8kbits/s speed=74.9x    frame=778893 fps=4499 q=-1.0 size=13581824kB time=03:36:14.44 bitrate=8575.5kbits/s speed=74.9x    frame=781637 fps=4502 q=-1.0 size=13618176kB time=03:37:00.18 bitrate=8568.2kbits/s speed=  75x    frame=784664 fps=4506 q=-1.0 size=13655296kB time=03:37:50.62 bitrate=8558.4kbits/s speed=75.1x    frame=788506 fps=4515 q=-1.0 size=13693952kB time=03:38:54.59 bitrate=8540.9kbits/s speed=75.2x    frame=791432 fps=4519 q=-1.0 size=13734912kB time=03:39:43.36 bitrate=8534.7kbits/s speed=75.3x    frame=793472 fps=4518 q=-1.0 size=13771520kB time=03:40:17.36 bitrate=8535.5kbits/s speed=75.3x    frame=795793 fps=4518 q=-1.0 size=13810432kB time=03:40:56.01 bitrate=8534.6kbits/s speed=75.3x    frame=798710 fps=4522 q=-1.0 size=13851392kB time=03:41:44.61 bitrate=8528.7kbits/s speed=75.3x    frame=801921 fps=4527 q=-1.0 size=13892864kB time=03:42:38.10 bitrate=8519.9kbits/s speed=75.4x    frame=805334 fps=4534 q=-1.0 size=13934848kB time=03:43:34.92 bitrate=8509.5kbits/s speed=75.5x    frame=808232 fps=4537 q=-1.0 size=13977344kB time=03:44:23.19 bitrate=8504.8kbits/s speed=75.6x    frame=811278 fps=4542 q=-1.0 size=14013696kB time=03:45:13.96 bitrate=8494.9kbits/s speed=75.7x    frame=813869 fps=4544 q=-1.0 size=14057472kB time=03:45:57.10 bitrate=8494.4kbits/s speed=75.7x    frame=816219 fps=4544 q=-1.0 size=14097408kB time=03:46:36.27 bitrate=8493.9kbits/s speed=75.7x    frame=819034 fps=4547 q=-1.0 size=14137088kB time=03:47:23.14 bitrate=8488.6kbits/s speed=75.7x    frame=821344 fps=4547 q=-1.0 size=14178048kB time=03:48:01.63 bitrate=8489.2kbits/s speed=75.7x    frame=823642 fps=4547 q=-1.0 size=14217984kB time=03:48:39.89 bitrate=8489.4kbits/s speed=75.7x    frame=825761 fps=4546 q=-1.0 size=14256384kB time=03:49:15.23 bitrate=8490.5kbits/s speed=75.7x    frame=828232 fps=4547 q=-1.0 size=14296576kB time=03:49:56.38 bitrate=8489.0kbits/s speed=75.8x    frame=830222 fps=4546 q=-1.0 size=14331648kB time=03:50:29.51 bitrate=8489.4kbits/s speed=75.7x    frame=832489 fps=4546 q=-1.0 size=14371072kB time=03:51:07.30 bitrate=8489.6kbits/s speed=75.7x    frame=834927 fps=4547 q=-1.0 size=14410240kB time=03:51:47.90 bitrate=8487.9kbits/s speed=75.7x    frame=838034 fps=4551 q=-1.0 size=14445312kB time=03:52:39.64 bitrate=8477.0kbits/s speed=75.8x    frame=842382 fps=4563 q=-1.0 size=14483968kB time=03:53:52.08 bitrate=8455.8kbits/s speed=  76x    frame=844671 fps=4563 q=-1.0 size=14523904kB time=03:54:30.19 bitrate=8456.2kbits/s speed=  76x    frame=847460 fps=4565 q=-1.0 size=14563072kB time=03:55:16.61 bitrate=8451.1kbits/s speed=  76x    frame=849382 fps=4563 q=-1.0 size=14602496kB time=03:55:48.66 bitrate=8454.8kbits/s speed=  76x    frame=851702 fps=4564 q=-1.0 size=14641664kB time=03:56:27.29 bitrate=8454.4kbits/s speed=  76x    frame=854286 fps=4565 q=-1.0 size=14680320kB time=03:57:10.32 bitrate=8451.0kbits/s speed=  76x    frame=856447 fps=4564 q=-1.0 size=14719744kB time=03:57:46.32 bitrate=8452.4kbits/s speed=  76x    frame=858143 fps=4561 q=-1.0 size=14751488kB time=03:58:14.59 bitrate=8453.8kbits/s speed=  76x    frame=861062 fps=4565 q=-1.0 size=14790912kB time=03:59:03.25 bitrate=8447.7kbits/s speed=  76x    frame=863048 fps=4563 q=-1.0 size=14830080kB time=03:59:36.31 bitrate=8450.6kbits/s speed=  76x    frame=865367 fps=4563 q=-1.0 size=14870016kB time=04:00:14.98 bitrate=8450.6kbits/s speed=  76x    frame=867707 fps=4564 q=-1.0 size=14906112kB time=04:00:53.95 bitrate=8448.3kbits/s speed=  76x    frame=869673 fps=4562 q=-1.0 size=14942208kB time=04:01:26.70 bitrate=8449.6kbits/s speed=  76x    frame=871519 fps=4560 q=-1.0 size=14977792kB time=04:01:57.46 bitrate=8451.8kbits/s speed=  76x    frame=874115 fps=4561 q=-1.0 size=15013120kB time=04:02:40.68 bitrate=8446.5kbits/s speed=  76x    frame=876074 fps=4560 q=-1.0 size=15049216kB time=04:03:13.34 bitrate=8447.9kbits/s speed=  76x    frame=878217 fps=4559 q=-1.0 size=15089664kB time=04:03:49.06 bitrate=8449.9kbits/s speed=75.9x    frame=880317 fps=4558 q=-1.0 size=15131136kB time=04:04:24.05 bitrate=8452.9kbits/s speed=75.9x    frame=882130 fps=4556 q=-1.0 size=15166976kB time=04:04:54.25 bitrate=8455.5kbits/s speed=75.9x    frame=884332 fps=4555 q=-1.0 size=15208448kB time=04:05:30.93 bitrate=8457.6kbits/s speed=75.9x    frame=886305 fps=4554 q=-1.0 size=15247360kB time=04:06:03.81 bitrate=8460.3kbits/s speed=75.9x    frame=888251 fps=4552 q=-1.0 size=15285504kB time=04:06:36.19 bitrate=8462.9kbits/s speed=75.8x    frame=890363 fps=4551 q=-1.0 size=15326208kB time=04:07:11.37 bitrate=8465.3kbits/s speed=75.8x    frame=892207 fps=4549 q=-1.0 size=15362304kB time=04:07:42.12 bitrate=8467.7kbits/s speed=75.8x    frame=894335 fps=4548 q=-1.0 size=15401472kB time=04:08:17.54 bitrate=8469.1kbits/s speed=75.8x    frame=896301 fps=4546 q=-1.0 size=15440128kB time=04:08:50.31 bitrate=8471.7kbits/s speed=75.7x    frame=898221 fps=4545 q=-1.0 size=15476736kB time=04:09:22.30 bitrate=8473.7kbits/s speed=75.7x    frame=900075 fps=4543 q=-1.0 size=15513344kB time=04:09:53.21 bitrate=8476.2kbits/s speed=75.7x    frame=902189 fps=4542 q=-1.0 size=15553536kB time=04:10:28.39 bitrate=8478.3kbits/s speed=75.7x    frame=904326 fps=4541 q=-1.0 size=15594752kB time=04:11:04.02 bitrate=8480.6kbits/s speed=75.6x    frame=906541 fps=4541 q=-1.0 size=15635712kB time=04:11:40.89 bitrate=8482.1kbits/s speed=75.6x    frame=908659 fps=4540 q=-1.0 size=15676160kB time=04:12:16.22 bitrate=8484.2kbits/s speed=75.6x    frame=910930 fps=4540 q=-1.0 size=15718144kB time=04:12:54.05 bitrate=8485.7kbits/s speed=75.6x    frame=913247 fps=4540 q=-1.0 size=15760128kB time=04:13:32.64 bitrate=8486.8kbits/s speed=75.6x    frame=915663 fps=4541 q=-1.0 size=15796736kB time=04:14:12.93 bitrate=8484.1kbits/s speed=75.6x    frame=917850 fps=4541 q=-1.0 size=15837440kB time=04:14:49.35 bitrate=8485.7kbits/s speed=75.6x    frame=920159 fps=4541 q=-1.0 size=15878400kB time=04:15:27.81 bitrate=8486.3kbits/s speed=75.6x    frame=922333 fps=4540 q=-1.0 size=15919360kB time=04:16:04.03 bitrate=8488.1kbits/s speed=75.6x    frame=924530 fps=4540 q=-1.0 size=15959808kB time=04:16:40.59 bitrate=8489.5kbits/s speed=75.6x    frame=928128 fps=4546 q=-1.0 size=15998720kB time=04:17:40.55 bitrate=8477.2kbits/s speed=75.7x    frame=930817 fps=4548 q=-1.0 size=16033792kB time=04:18:25.35 bitrate=8471.2kbits/s speed=75.8x    frame=933812 fps=4552 q=-1.0 size=16074496kB time=04:19:15.26 bitrate=8465.4kbits/s speed=75.8x    frame=936440 fps=4554 q=-1.0 size=16113152kB time=04:19:59.05 bitrate=8462.0kbits/s speed=75.9x    frame=938397 fps=4552 q=-1.0 size=16153600kB time=04:20:31.66 bitrate=8465.5kbits/s speed=75.8x    frame=940461 fps=4551 q=-1.0 size=16194560kB time=04:21:06.03 bitrate=8468.4kbits/s speed=75.8x    frame=942460 fps=4550 q=-1.0 size=16232704kB time=04:21:39.32 bitrate=8470.3kbits/s speed=75.8x    frame=944454 fps=4548 q=-1.0 size=16273408kB time=04:22:12.54 bitrate=8473.6kbits/s speed=75.8x    frame=946671 fps=4548 q=-1.0 size=16315136kB time=04:22:49.47 bitrate=8475.5kbits/s speed=75.8x    frame=948561 fps=4546 q=-1.0 size=16351744kB time=04:23:20.92 bitrate=8477.6kbits/s speed=75.7x    frame=950720 fps=4546 q=-1.0 size=16394752kB time=04:23:56.89 bitrate=8480.6kbits/s speed=75.7x    frame=952861 fps=4545 q=-1.0 size=16433920kB time=04:24:32.55 bitrate=8481.7kbits/s speed=75.7x    frame=954996 fps=4544 q=-1.0 size=16472576kB time=04:25:08.08 bitrate=8482.7kbits/s speed=75.7x    frame=957389 fps=4545 q=-1.0 size=16512000kB time=04:25:47.95 bitrate=8481.7kbits/s speed=75.7x    frame=960019 fps=4546 q=-1.0 size=16548864kB time=04:26:31.79 bitrate=8477.4kbits/s speed=75.7x    frame=962522 fps=4548 q=-1.0 size=16586752kB time=04:27:13.47 bitrate=8474.7kbits/s speed=75.8x    frame=965860 fps=4553 q=-1.0 size=16625920kB time=04:28:09.09 bitrate=8465.3kbits/s speed=75.8x    frame=967988 fps=4552 q=-1.0 size=16664064kB time=04:28:44.57 bitrate=8466.1kbits/s speed=75.8x    frame=970195 fps=4552 q=-1.0 size=16704512kB time=04:29:21.34 bitrate=8467.3kbits/s speed=75.8x    frame=972550 fps=4552 q=-1.0 size=16743680kB time=04:30:00.59 bitrate=8466.6kbits/s speed=75.8x    frame=974367 fps=4550 q=-1.0 size=16778752kB time=04:30:30.83 bitrate=8468.5kbits/s speed=75.8x    frame=977193 fps=4552 q=-1.0 size=16815360kB time=04:31:17.92 bitrate=8462.5kbits/s speed=75.8x    frame=979484 fps=4552 q=-1.0 size=16851968kB time=04:31:56.10 bitrate=8461.0kbits/s speed=75.8x    frame=982424 fps=4555 q=-1.0 size=16888320kB time=04:32:45.07 bitrate=8453.9kbits/s speed=75.9x    frame=985006 fps=4557 q=-1.0 size=16921856kB time=04:33:28.06 bitrate=8448.5kbits/s speed=75.9x    frame=987543 fps=4558 q=-1.0 size=16955392kB time=04:34:10.35 bitrate=8443.5kbits/s speed=75.9x    frame=991304 fps=4565 q=-1.0 size=16991744kB time=04:35:12.99 bitrate=8429.5kbits/s speed=  76x    frame=993970 fps=4567 q=-1.0 size=17030144kB time=04:35:57.43 bitrate=8425.9kbits/s speed=76.1x    frame=996363 fps=4567 q=-1.0 size=17068288kB time=04:36:37.31 bitrate=8424.5kbits/s speed=76.1x    frame=998689 fps=4567 q=-1.0 size=17107712kB time=04:37:16.06 bitrate=8424.3kbits/s speed=76.1x    frame=1001859 fps=4571 q=-1.0 size=17144832kB time=04:38:08.83 bitrate=8415.8kbits/s speed=76.1x    frame=1004737 fps=4574 q=-1.0 size=17183744kB time=04:38:56.79 bitrate=8410.8kbits/s speed=76.2x    frame=1007174 fps=4575 q=-1.0 size=17224448kB time=04:39:37.39 bitrate=8410.3kbits/s speed=76.2x    frame=1012188 fps=4587 q=-1.0 size=17258752kB time=04:41:00.90 bitrate=8385.3kbits/s speed=76.4x    frame=1014504 fps=4587 q=-1.0 size=17296640kB time=04:41:39.46 bitrate=8384.5kbits/s speed=76.4x    frame=1016735 fps=4587 q=-1.0 size=17334016kB time=04:42:16.59 bitrate=8384.2kbits/s speed=76.4x    frame=1018733 fps=4585 q=-1.0 size=17370368kB time=04:42:49.88 bitrate=8385.3kbits/s speed=76.4x    frame=1021070 fps=4586 q=-1.0 size=17410048kB time=04:43:28.82 bitrate=8385.2kbits/s speed=76.4x    frame=1023405 fps=4586 q=-1.0 size=17448704kB time=04:44:07.69 bitrate=8384.7kbits/s speed=76.4x    frame=1025554 fps=4585 q=-1.0 size=17483520kB time=04:44:43.51 bitrate=8383.8kbits/s speed=76.4x    frame=1028141 fps=4586 q=-1.0 size=17522688kB time=04:45:26.60 bitrate=8381.5kbits/s speed=76.4x    frame=1030546 fps=4587 q=-1.0 size=17559808kB time=04:46:06.69 bitrate=8379.6kbits/s speed=76.4x    frame=1032966 fps=4588 q=-1.0 size=17596416kB time=04:46:47.01 bitrate=8377.4kbits/s speed=76.4x    frame=1036049 fps=4591 q=-1.0 size=17634816kB time=04:47:38.34 bitrate=8370.7kbits/s speed=76.5x    frame=1038827 fps=4593 q=-1.0 size=17669120kB time=04:48:24.65 bitrate=8364.5kbits/s speed=76.5x    frame=1041051 fps=4593 q=-1.0 size=17706752kB time=04:49:01.68 bitrate=8364.5kbits/s speed=76.5x    frame=1043729 fps=4594 q=-1.0 size=17746688kB time=04:49:46.27 bitrate=8361.8kbits/s speed=76.5x    frame=1045727 fps=4593 q=-1.0 size=17782784kB time=04:50:19.56 bitrate=8362.8kbits/s speed=76.5x    frame=1047680 fps=4592 q=-1.0 size=17818880kB time=04:50:52.10 bitrate=8364.2kbits/s speed=76.5x    frame=1051639 fps=4599 q=-1.0 size=17857536kB time=04:51:58.07 bitrate=8350.7kbits/s speed=76.6x    frame=1054806 fps=4603 q=-1.0 size=17898240kB time=04:52:50.84 bitrate=8344.6kbits/s speed=76.7x    frame=1058336 fps=4608 q=-1.0 size=17936896kB time=04:53:49.67 bitrate=8334.8kbits/s speed=76.8x    frame=1060919 fps=4609 q=-1.0 size=17977344kB time=04:54:32.68 bitrate=8333.2kbits/s speed=76.8x    frame=1063388 fps=4610 q=-1.0 size=18016768kB time=04:55:13.83 bitrate=8332.1kbits/s speed=76.8x    frame=1065681 fps=4610 q=-1.0 size=18057984kB time=04:55:51.99 bitrate=8333.2kbits/s speed=76.8x    frame=1067960 fps=4610 q=-1.0 size=18094592kB time=04:56:29.97 bitrate=8332.3kbits/s speed=76.8x    frame=1071430 fps=4615 q=-1.0 size=18137088kB time=04:57:27.74 bitrate=8324.8kbits/s speed=76.9x    frame=1074935 fps=4620 q=-1.0 size=18173440kB time=04:58:26.11 bitrate=8314.3kbits/s speed=  77x    frame=1077576 fps=4621 q=-1.0 size=18216192kB time=04:59:10.11 bitrate=8313.4kbits/s speed=  77x    frame=1079835 fps=4621 q=-1.0 size=18258688kB time=04:59:47.74 bitrate=8315.4kbits/s speed=  77x    frame=1082560 fps=4623 q=-1.0 size=18296320kB time=05:00:33.12 bitrate=8311.6kbits/s speed=  77x    frame=1084915 fps=4623 q=-1.0 size=18329856kB time=05:01:12.38 bitrate=8308.7kbits/s speed=  77x    frame=1087223 fps=4623 q=-1.0 size=18371584kB time=05:01:50.84 bitrate=8309.9kbits/s speed=  77x    frame=1089563 fps=4623 q=-1.0 size=18413568kB time=05:02:29.81 bitrate=8311.0kbits/s speed=  77x    frame=1092584 fps=4626 q=-1.0 size=18452224kB time=05:03:20.11 bitrate=8305.5kbits/s speed=77.1x    frame=1097106 fps=4635 q=-1.0 size=18494208kB time=05:04:35.48 bitrate=8290.0kbits/s speed=77.2x    frame=1099657 fps=4636 q=-1.0 size=18538240kB time=05:05:17.95 bitrate=8290.5kbits/s speed=77.2x    frame=1102083 fps=4637 q=-1.0 size=18577408kB time=05:05:58.39 bitrate=8289.7kbits/s speed=77.2x    frame=1104794 fps=4638 q=-1.0 size=18621952kB time=05:06:43.53 bitrate=8289.2kbits/s speed=77.3x    frame=1107035 fps=4638 q=-1.0 size=18662400kB time=05:07:20.89 bitrate=8290.4kbits/s speed=77.3x    frame=1109921 fps=4640 q=-1.0 size=18707200kB time=05:08:08.99 bitrate=8288.7kbits/s speed=77.3x    frame=1112303 fps=4641 q=-1.0 size=18750720kB time=05:08:48.67 bitrate=8290.2kbits/s speed=77.3x    frame=1115039 fps=4642 q=-1.0 size=18794752kB time=05:09:34.21 bitrate=8289.3kbits/s speed=77.3x    frame=1117701 fps=4644 q=-1.0 size=18838016kB time=05:10:18.59 bitrate=8288.5kbits/s speed=77.4x    frame=1120467 fps=4646 q=-1.0 size=18882560kB time=05:11:04.67 bitrate=8287.6kbits/s speed=77.4x    frame=1123030 fps=4647 q=-1.0 size=18920704kB time=05:11:47.34 bitrate=8285.4kbits/s speed=77.4x    frame=1126744 fps=4652 q=-1.0 size=18964480kB time=05:12:49.24 bitrate=8277.2kbits/s speed=77.5x    frame=1129248 fps=4653 q=-1.0 size=19005440kB time=05:13:30.96 bitrate=8276.7kbits/s speed=77.5x    frame=1131969 fps=4655 q=-1.0 size=19045888kB time=05:14:16.27 bitrate=8274.4kbits/s speed=77.5x    frame=1134394 fps=4655 q=-1.0 size=19086592kB time=05:14:56.64 bitrate=8274.3kbits/s speed=77.5x    frame=1136375 fps=4654 q=-1.0 size=19121664kB time=05:15:29.67 bitrate=8275.1kbits/s speed=77.5x    frame=1138318 fps=4652 q=-1.0 size=19159552kB time=05:16:02.04 bitrate=8277.3kbits/s speed=77.5x    frame=1140988 fps=4653 q=-1.0 size=19198720kB time=05:16:46.52 bitrate=8274.8kbits/s speed=77.5x    frame=1143599 fps=4655 q=-1.0 size=19235840kB time=05:17:30.04 bitrate=8271.9kbits/s speed=77.5x    frame=1145841 fps=4654 q=-1.0 size=19277824kB time=05:18:07.34 bitrate=8273.7kbits/s speed=77.5x    frame=1148209 fps=4654 q=-1.0 size=19320832kB time=05:18:46.81 bitrate=8275.1kbits/s speed=77.5x    frame=1150379 fps=4654 q=-1.0 size=19361792kB time=05:19:22.94 bitrate=8277.0kbits/s speed=77.5x    frame=1155455 fps=4665 q=-1.0 size=19403520kB time=05:20:47.44 bitrate=8258.4kbits/s speed=77.7x    frame=1158139 fps=4666 q=-1.0 size=19442944kB time=05:21:32.15 bitrate=8256.0kbits/s speed=77.7x    frame=1160246 fps=4665 q=-1.0 size=19483136kB time=05:22:07.23 bitrate=8258.1kbits/s speed=77.7x    frame=1162851 fps=4666 q=-1.0 size=19525888kB time=05:22:50.58 bitrate=8257.7kbits/s speed=77.7x    frame=1165558 fps=4668 q=-1.0 size=19561728kB time=05:23:35.68 bitrate=8253.6kbits/s speed=77.8x    frame=1167665 fps=4667 q=-1.0 size=19604736kB time=05:24:10.77 bitrate=8256.8kbits/s speed=77.7x    frame=1169718 fps=4666 q=-1.0 size=19647232kB time=05:24:44.95 bitrate=8260.2kbits/s speed=77.7x    frame=1171441 fps=4664 q=-1.0 size=19683072kB time=05:25:13.62 bitrate=8263.1kbits/s speed=77.7x    frame=1173403 fps=4662 q=-1.0 size=19723776kB time=05:25:46.33 bitrate=8266.4kbits/s speed=77.7x    frame=1175407 fps=4661 q=-1.0 size=19765248kB time=05:26:19.70 bitrate=8269.6kbits/s speed=77.6x    frame=1177428 fps=4659 q=-1.0 size=19807744kB time=05:26:53.38 bitrate=8273.2kbits/s speed=77.6x    frame=1179512 fps=4658 q=-1.0 size=19850752kB time=05:27:28.06 bitrate=8276.5kbits/s speed=77.6x    frame=1181339 fps=4657 q=-1.0 size=19888640kB time=05:27:58.49 bitrate=8279.5kbits/s speed=77.6x    frame=1183314 fps=4655 q=-1.0 size=19929600kB time=05:28:31.34 bitrate=8282.7kbits/s speed=77.5x    frame=1185215 fps=4653 q=-1.0 size=19969024kB time=05:29:03.00 bitrate=8285.8kbits/s speed=77.5x    frame=1187023 fps=4651 q=-1.0 size=20006656kB time=05:29:33.12 bitrate=8288.8kbits/s speed=77.5x    frame=1189078 fps=4650 q=-1.0 size=20050176kB time=05:30:07.33 bitrate=8292.4kbits/s speed=77.5x    frame=1191040 fps=4649 q=-1.0 size=20090368kB time=05:30:39.98 bitrate=8295.4kbits/s speed=77.4x    frame=1192910 fps=4647 q=-1.0 size=20128512kB time=05:31:11.12 bitrate=8298.1kbits/s speed=77.4x    frame=1195540 fps=4648 q=-1.0 size=20169216kB time=05:31:54.94 bitrate=8296.6kbits/s speed=77.4x    frame=1198497 fps=4651 q=-1.0 size=20207872kB time=05:32:44.19 bitrate=8292.0kbits/s speed=77.5x    frame=1200878 fps=4651 q=-1.0 size=20244224kB time=05:33:23.83 bitrate=8290.4kbits/s speed=77.5x    frame=1202797 fps=4649 q=-1.0 size=20283904kB time=05:33:55.77 bitrate=8293.5kbits/s speed=77.4x    frame=1204600 fps=4647 q=-1.0 size=20321280kB time=05:34:25.81 bitrate=8296.3kbits/s speed=77.4x    frame=1206609 fps=4646 q=-1.0 size=20363008kB time=05:34:59.23 bitrate=8299.5kbits/s speed=77.4x    frame=1208602 fps=4645 q=-1.0 size=20404480kB time=05:35:32.40 bitrate=8302.7kbits/s speed=77.4x    frame=1211039 fps=4645 q=-1.0 size=20444672kB time=05:36:12.97 bitrate=8302.3kbits/s speed=77.4x    frame=1213971 fps=4648 q=-1.0 size=20486144kB time=05:37:01.82 bitrate=8299.1kbits/s speed=77.4x    frame=1215944 fps=4646 q=-1.0 size=20526848kB time=05:37:34.67 bitrate=8302.1kbits/s speed=77.4x    frame=1217905 fps=4645 q=-1.0 size=20567552kB time=05:38:07.29 bitrate=8305.2kbits/s speed=77.4x    frame=1220000 fps=4644 q=-1.0 size=20610816kB time=05:38:42.16 bitrate=8308.4kbits/s speed=77.4x    frame=1221934 fps=4643 q=-1.0 size=20651008kB time=05:39:14.35 bitrate=8311.4kbits/s speed=77.3x    frame=1223782 fps=4641 q=-1.0 size=20689152kB time=05:39:45.13 bitrate=8314.2kbits/s speed=77.3x    frame=1225802 fps=4640 q=-1.0 size=20731136kB time=05:40:18.77 bitrate=8317.3kbits/s speed=77.3x    frame=1227643 fps=4638 q=-1.0 size=20769536kB time=05:40:49.42 bitrate=8320.2kbits/s speed=77.3x    frame=1230162 fps=4639 q=-1.0 size=20811776kB time=05:41:31.37 bitrate=8320.1kbits/s speed=77.3x    frame=1233317 fps=4642 q=-1.0 size=20853248kB time=05:42:23.92 bitrate=8315.3kbits/s speed=77.3x    frame=1235252 fps=4640 q=-1.0 size=20889088kB time=05:42:56.14 bitrate=8316.6kbits/s speed=77.3x    frame=1237261 fps=4639 q=-1.0 size=20930816kB time=05:43:29.58 bitrate=8319.7kbits/s speed=77.3x    frame=1239327 fps=4638 q=-1.0 size=20972544kB time=05:44:03.97 bitrate=8322.4kbits/s speed=77.3x    frame=1241307 fps=4637 q=-1.0 size=21013760kB time=05:44:36.93 bitrate=8325.4kbits/s speed=77.2x    frame=1243341 fps=4636 q=-1.0 size=21055744kB time=05:45:10.80 bitrate=8328.4kbits/s speed=77.2x    frame=1245044 fps=4634 q=-1.0 size=21091072kB time=05:45:39.19 bitrate=8331.0kbits/s speed=77.2x    frame=1247076 fps=4632 q=-1.0 size=21133312kB time=05:46:13.01 bitrate=8334.1kbits/s speed=77.2x    frame=1249381 fps=4632 q=-1.0 size=21176064kB time=05:46:51.40 bitrate=8335.5kbits/s speed=77.2x    frame=1252369 fps=4635 q=-1.0 size=21212928kB time=05:47:41.14 bitrate=8330.1kbits/s speed=77.2x    frame=1255665 fps=4638 q=-1.0 size=21254912kB time=05:48:35.98 bitrate=8324.7kbits/s speed=77.3x    frame=1257988 fps=4638 q=-1.0 size=21296896kB time=05:49:14.67 bitrate=8325.8kbits/s speed=77.3x    frame=1259894 fps=4637 q=-1.0 size=21336320kB time=05:49:46.40 bitrate=8328.6kbits/s speed=77.2x    frame=1261908 fps=4636 q=-1.0 size=21378816kB time=05:50:19.93 bitrate=8331.9kbits/s speed=77.2x    frame=1263876 fps=4635 q=-1.0 size=21419008kB time=05:50:52.70 bitrate=8334.5kbits/s speed=77.2x    frame=1265766 fps=4633 q=-1.0 size=21458432kB time=05:51:24.20 bitrate=8337.4kbits/s speed=77.2x    frame=1267813 fps=4632 q=-1.0 size=21501184kB time=05:51:58.27 bitrate=8340.5kbits/s speed=77.2x    frame=1269668 fps=4630 q=-1.0 size=21539584kB time=05:52:29.16 bitrate=8343.2kbits/s speed=77.1x    frame=1271635 fps=4629 q=-1.0 size=21580544kB time=05:53:01.91 bitrate=8346.2kbits/s speed=77.1x    frame=1273691 fps=4628 q=-1.0 size=21623040kB time=05:53:36.13 bitrate=8349.1kbits/s speed=77.1x    frame=1275578 fps=4627 q=-1.0 size=21662208kB time=05:54:07.53 bitrate=8351.9kbits/s speed=77.1x    frame=1277595 fps=4625 q=-1.0 size=21704192kB time=05:54:41.13 bitrate=8354.9kbits/s speed=  77x    frame=1279587 fps=4624 q=-1.0 size=21745408kB time=05:55:14.32 bitrate=8357.7kbits/s speed=  77x    frame=1281567 fps=4623 q=-1.0 size=21786624kB time=05:55:47.27 bitrate=8360.6kbits/s speed=  77x    frame=1283634 fps=4622 q=-1.0 size=21829632kB time=05:56:21.66 bitrate=8363.6kbits/s speed=  77x    frame=1285540 fps=4621 q=-1.0 size=21869056kB time=05:56:53.42 bitrate=8366.3kbits/s speed=  77x    frame=1287515 fps=4620 q=-1.0 size=21910272kB time=05:57:26.31 bitrate=8369.2kbits/s speed=76.9x    frame=1289622 fps=4619 q=-1.0 size=21953792kB time=05:58:01.37 bitrate=8372.2kbits/s speed=76.9x    frame=1291442 fps=4617 q=-1.0 size=21991936kB time=05:58:31.71 bitrate=8374.9kbits/s speed=76.9x    frame=1294653 fps=4620 q=-1.0 size=22032128kB time=05:59:25.22 bitrate=8369.4kbits/s speed=  77x    frame=1297960 fps=4624 q=-1.0 size=22073344kB time=06:00:20.27 bitrate=8363.7kbits/s speed=  77x    frame=1300296 fps=4624 q=-1.0 size=22107904kB time=06:00:59.17 bitrate=8361.7kbits/s speed=  77x    frame=1302340 fps=4623 q=-1.0 size=22150400kB time=06:01:33.23 bitrate=8364.6kbits/s speed=  77x    frame=1304279 fps=4622 q=-1.0 size=22190592kB time=06:02:05.49 bitrate=8367.4kbits/s speed=  77x    frame=1306595 fps=4622 q=-1.0 size=22233600kB time=06:02:44.05 bitrate=8368.7kbits/s speed=  77x    frame=1309870 fps=4625 q=-1.0 size=22272768kB time=06:03:38.63 bitrate=8362.5kbits/s speed=  77x    frame=1313005 fps=4628 q=-1.0 size=22311936kB time=06:04:30.83 bitrate=8357.2kbits/s speed=77.1x    frame=1316269 fps=4631 q=-1.0 size=22352640kB time=06:05:25.19 bitrate=8351.7kbits/s speed=77.1x    frame=1319517 fps=4635 q=-1.0 size=22395136kB time=06:06:19.31 bitrate=8347.0kbits/s speed=77.2x    frame=1321920 fps=4635 q=-1.0 size=22432512kB time=06:06:59.30 bitrate=8345.7kbits/s speed=77.2x    frame=1323939 fps=4634 q=-1.0 size=22474240kB time=06:07:32.93 bitrate=8348.5kbits/s speed=77.2x    frame=1325789 fps=4632 q=-1.0 size=22512640kB time=06:08:03.76 bitrate=8351.1kbits/s speed=77.2x    frame=1327611 fps=4630 q=-1.0 size=22550528kB time=06:08:34.07 bitrate=8353.7kbits/s speed=77.1x    frame=1329559 fps=4629 q=-1.0 size=22590720kB time=06:09:06.50 bitrate=8356.3kbits/s speed=77.1x    frame=1331456 fps=4628 q=-1.0 size=22630400kB time=06:09:38.09 bitrate=8359.1kbits/s speed=77.1x    frame=1333259 fps=4626 q=-1.0 size=22667776kB time=06:10:08.15 bitrate=8361.5kbits/s speed=77.1x    frame=1335214 fps=4625 q=-1.0 size=22707968kB time=06:10:40.67 bitrate=8364.1kbits/s speed=  77x    frame=1336970 fps=4623 q=-1.0 size=22744576kB time=06:11:09.94 bitrate=8366.6kbits/s speed=  77x    frame=1338918 fps=4621 q=-1.0 size=22784768kB time=06:11:42.37 bitrate=8369.2kbits/s speed=  77x    frame=1341738 fps=4623 q=-1.0 size=22823168kB time=06:12:29.35 bitrate=8365.7kbits/s speed=  77x    frame=1344444 fps=4625 q=-1.0 size=22858240kB time=06:13:14.44 bitrate=8361.7kbits/s speed=  77x    frame=1346495 fps=4624 q=-1.0 size=22899456kB time=06:13:48.58 bitrate=8364.0kbits/s speed=  77x    frame=1348384 fps=4622 q=-1.0 size=22938368kB time=06:14:20.05 bitrate=8366.5kbits/s speed=  77x    frame=1350181 fps=4620 q=-1.0 size=22976000kB time=06:14:49.95 bitrate=8369.0kbits/s speed=  77x    frame=1352122 fps=4619 q=-1.0 size=23016192kB time=06:15:22.27 bitrate=8371.7kbits/s speed=76.9x    frame=1353981 fps=4618 q=-1.0 size=23054848kB time=06:15:53.24 bitrate=8374.2kbits/s speed=76.9x    frame=1355889 fps=4616 q=-1.0 size=23094272kB time=06:16:24.97 bitrate=8376.7kbits/s speed=76.9x    frame=1357782 fps=4615 q=-1.0 size=23133184kB time=06:16:56.51 bitrate=8379.1kbits/s speed=76.9x    frame=1360305 fps=4616 q=-1.0 size=23166976kB time=06:17:38.55 bitrate=8375.8kbits/s speed=76.9x    frame=1362884 fps=4616 q=-1.0 size=23205888kB time=06:18:21.50 bitrate=8374.0kbits/s speed=76.9x    frame=1364797 fps=4615 q=-1.0 size=23245568kB time=06:18:53.37 bitrate=8376.6kbits/s speed=76.9x    frame=1366392 fps=4613 q=-1.0 size=23278592kB time=06:19:19.92 bitrate=8378.7kbits/s speed=76.8x    frame=1368301 fps=4611 q=-1.0 size=23318272kB time=06:19:51.67 bitrate=8381.3kbits/s speed=76.8x    frame=1370177 fps=4610 q=-1.0 size=23357440kB time=06:20:22.94 bitrate=8383.8kbits/s speed=76.8x    frame=1372087 fps=4609 q=-1.0 size=23396864kB time=06:20:54.72 bitrate=8386.3kbits/s speed=76.8x    frame=1374568 fps=4609 q=-1.0 size=23436800kB time=06:21:36.02 bitrate=8385.5kbits/s speed=76.8x    frame=1377367 fps=4611 q=-1.0 size=23474176kB time=06:22:22.63 bitrate=8381.8kbits/s speed=76.8x    frame=1379606 fps=4611 q=-1.0 size=23513856kB time=06:22:59.92 bitrate=8382.3kbits/s speed=76.8x    frame=1381505 fps=4609 q=-1.0 size=23553280kB time=06:23:31.59 bitrate=8384.8kbits/s speed=76.8x    frame=1383232 fps=4607 q=-1.0 size=23589120kB time=06:24:00.34 bitrate=8387.1kbits/s speed=76.7x    frame=1385126 fps=4606 q=-1.0 size=23628544kB time=06:24:31.89 bitrate=8389.6kbits/s speed=76.7x    frame=1387485 fps=4606 q=-1.0 size=23667200kB time=06:25:11.20 bitrate=8389.1kbits/s speed=76.7x    frame=1390603 fps=4609 q=-1.0 size=23705856kB time=06:26:03.14 bitrate=8383.9kbits/s speed=76.8x    frame=1393801 fps=4612 q=-1.0 size=23745024kB time=06:26:56.41 bitrate=8378.5kbits/s speed=76.8x    frame=1395718 fps=4610 q=-1.0 size=23784448kB time=06:27:28.36 bitrate=8380.9kbits/s speed=76.8x    frame=1397638 fps=4609 q=-1.0 size=23823872kB time=06:28:00.31 bitrate=8383.3kbits/s speed=76.8x    frame=1399453 fps=4608 q=-1.0 size=23861760kB time=06:28:30.53 bitrate=8385.7kbits/s speed=76.7x    frame=1401104 fps=4605 q=-1.0 size=23896064kB time=06:28:58.01 bitrate=8387.9kbits/s speed=76.7x    frame=1402990 fps=4604 q=-1.0 size=23935232kB time=06:29:29.41 bitrate=8390.3kbits/s speed=76.7x    frame=1404902 fps=4603 q=-1.0 size=23974912kB time=06:30:01.26 bitrate=8392.8kbits/s speed=76.7x    frame=1406997 fps=4602 q=-1.0 size=24011264kB time=06:30:36.13 bitrate=8393.0kbits/s speed=76.7x    frame=1409892 fps=4604 q=-1.0 size=24049408kB time=06:31:24.36 bitrate=8389.1kbits/s speed=76.7x    frame=1411960 fps=4603 q=-1.0 size=24088576kB time=06:31:58.80 bitrate=8390.5kbits/s speed=76.7x    frame=1413931 fps=4602 q=-1.0 size=24129280kB time=06:32:31.64 bitrate=8392.9kbits/s speed=76.7x    frame=1415891 fps=4601 q=-1.0 size=24169984kB time=06:33:04.27 bitrate=8395.4kbits/s speed=76.6x    frame=1417773 fps=4600 q=-1.0 size=24209152kB time=06:33:35.60 bitrate=8397.9kbits/s speed=76.6x    frame=1419699 fps=4598 q=-1.0 size=24249088kB time=06:34:07.65 bitrate=8400.3kbits/s speed=76.6x    frame=1421604 fps=4597 q=-1.0 size=24288768kB time=06:34:39.32 bitrate=8402.8kbits/s speed=76.6x    frame=1423268 fps=4595 q=-1.0 size=24323328kB time=06:35:07.06 bitrate=8405.0kbits/s speed=76.5x    frame=1425187 fps=4594 q=-1.0 size=24363264kB time=06:35:39.00 bitrate=8407.4kbits/s speed=76.5x    frame=1427046 fps=4592 q=-1.0 size=24401664kB time=06:36:09.97 bitrate=8409.7kbits/s speed=76.5x    frame=1428942 fps=4591 q=-1.0 size=24441088kB time=06:36:41.50 bitrate=8412.1kbits/s speed=76.5x    frame=1430856 fps=4590 q=-1.0 size=24480768kB time=06:37:13.35 bitrate=8414.5kbits/s speed=76.5x    frame=1432794 fps=4589 q=-1.0 size=24520960kB time=06:37:45.60 bitrate=8417.0kbits/s speed=76.4x    frame=1434746 fps=4588 q=-1.0 size=24561408kB time=06:38:18.08 bitrate=8419.4kbits/s speed=76.4x    frame=1437773 fps=4590 q=-1.0 size=24600064kB time=06:39:08.52 bitrate=8414.9kbits/s speed=76.5x    frame=1440774 fps=4592 q=-1.0 size=24636672kB time=06:39:58.53 bitrate=8409.8kbits/s speed=76.5x    frame=1443567 fps=4594 q=-1.0 size=24675584kB time=06:40:45.06 bitrate=8406.8kbits/s speed=76.5x    frame=1445472 fps=4593 q=-1.0 size=24715520kB time=06:41:16.79 bitrate=8409.3kbits/s speed=76.5x    frame=1447313 fps=4591 q=-1.0 size=24753152kB time=06:41:47.42 bitrate=8411.4kbits/s speed=76.5x    frame=1449193 fps=4590 q=-1.0 size=24792064kB time=06:42:18.72 bitrate=8413.7kbits/s speed=76.5x    frame=1450930 fps=4588 q=-1.0 size=24828416kB time=06:42:47.65 bitrate=8416.0kbits/s speed=76.4x    frame=1452858 fps=4587 q=-1.0 size=24868352kB time=06:43:19.75 bitrate=8418.3kbits/s speed=76.4x    frame=1454742 fps=4586 q=-1.0 size=24907520kB time=06:43:51.12 bitrate=8420.7kbits/s speed=76.4x    frame=1456576 fps=4584 q=-1.0 size=24945408kB time=06:44:21.64 bitrate=8422.9kbits/s speed=76.4x    frame=1459060 fps=4585 q=-1.0 size=24980480kB time=06:45:03.01 bitrate=8420.4kbits/s speed=76.4x    frame=1461987 fps=4587 q=-1.0 size=25018368kB time=06:45:51.74 bitrate=8416.3kbits/s speed=76.4x    frame=1464772 fps=4588 q=-1.0 size=25056512kB time=06:46:38.13 bitrate=8413.1kbits/s speed=76.4x    frame=1466687 fps=4587 q=-1.0 size=25096448kB time=06:47:10.01 bitrate=8415.5kbits/s speed=76.4x    frame=1468616 fps=4586 q=-1.0 size=25136384kB time=06:47:42.12 bitrate=8417.8kbits/s speed=76.4x    frame=1470465 fps=4585 q=-1.0 size=25174784kB time=06:48:12.91 bitrate=8420.1kbits/s speed=76.4x    frame=1472421 fps=4583 q=-1.0 size=25215232kB time=06:48:45.44 bitrate=8422.4kbits/s speed=76.3x    frame=1474333 fps=4582 q=-1.0 size=25254144kB time=06:49:17.28 bitrate=8424.5kbits/s speed=76.3x    frame=1476250 fps=4581 q=-1.0 size=25294080kB time=06:49:49.19 bitrate=8426.8kbits/s speed=76.3x    frame=1478089 fps=4580 q=-1.0 size=25331968kB time=06:50:19.83 bitrate=8429.0kbits/s speed=76.3x    frame=1479693 fps=4578 q=-1.0 size=25365248kB time=06:50:46.51 bitrate=8430.9kbits/s speed=76.2x    frame=1481448 fps=4576 q=-1.0 size=25401856kB time=06:51:15.75 bitrate=8433.1kbits/s speed=76.2x    frame=1483329 fps=4575 q=-1.0 size=25440768kB time=06:51:47.11 bitrate=8435.3kbits/s speed=76.2x    frame=1485193 fps=4573 q=-1.0 size=25479424kB time=06:52:18.12 bitrate=8437.5kbits/s speed=76.2x    frame=1488010 fps=4575 q=-1.0 size=25513984kB time=06:53:05.05 bitrate=8432.9kbits/s speed=76.2x    frame=1490824 fps=4577 q=-1.0 size=25550848kB time=06:53:51.92 bitrate=8429.2kbits/s speed=76.2x    frame=1493454 fps=4578 q=-1.0 size=25583872kB time=06:54:35.73 bitrate=8425.2kbits/s speed=76.2x    frame=1495130 fps=4576 q=-1.0 size=25618176kB time=06:55:03.61 bitrate=8427.1kbits/s speed=76.2x    frame=1496754 fps=4574 q=-1.0 size=25651712kB time=06:55:30.66 bitrate=8428.9kbits/s speed=76.2x    frame=1498392 fps=4572 q=-1.0 size=25686016kB time=06:55:57.93 bitrate=8431.0kbits/s speed=76.1x    frame=1500064 fps=4570 q=-1.0 size=25720576kB time=06:56:25.72 bitrate=8432.9kbits/s speed=76.1x    frame=1501702 fps=4568 q=-1.0 size=25754880kB time=06:56:53.02 bitrate=8435.0kbits/s speed=76.1x    frame=1503375 fps=4566 q=-1.0 size=25789184kB time=06:57:20.88 bitrate=8436.8kbits/s speed=76.1x    frame=1505023 fps=4564 q=-1.0 size=25823488kB time=06:57:48.34 bitrate=8438.8kbits/s speed=  76x    frame=1506719 fps=4562 q=-1.0 size=25858816kB time=06:58:16.56 bitrate=8440.8kbits/s speed=  76x    frame=1508576 fps=4561 q=-1.0 size=25897216kB time=06:58:47.46 bitrate=8443.0kbits/s speed=  76x    frame=1510374 fps=4560 q=-1.0 size=25934336kB time=06:59:17.42 bitrate=8445.0kbits/s speed=75.9x    frame=1512278 fps=4558 q=-1.0 size=25974016kB time=06:59:49.10 bitrate=8447.3kbits/s speed=75.9x    frame=1514321 fps=4558 q=-1.0 size=26016768kB time=07:00:23.12 bitrate=8449.8kbits/s speed=75.9x    frame=1516662 fps=4558 q=-1.0 size=26052864kB time=07:01:02.09 bitrate=8448.4kbits/s speed=75.9x    frame=1519813 fps=4561 q=-1.0 size=26093568kB time=07:01:54.61 bitrate=8444.1kbits/s speed=  76x    frame=1522794 fps=4563 q=-1.0 size=26133760kB time=07:02:44.26 bitrate=8440.5kbits/s speed=  76x    frame=1524773 fps=4562 q=-1.0 size=26174976kB time=07:03:17.22 bitrate=8442.9kbits/s speed=  76x    frame=1526771 fps=4561 q=-1.0 size=26216192kB time=07:03:50.49 bitrate=8445.1kbits/s speed=  76x    frame=1528713 fps=4560 q=-1.0 size=26256640kB time=07:04:22.82 bitrate=8447.4kbits/s speed=  76x    frame=1530615 fps=4559 q=-1.0 size=26296320kB time=07:04:54.46 bitrate=8449.7kbits/s speed=75.9x    frame=1532577 fps=4558 q=-1.0 size=26337536kB time=07:05:27.13 bitrate=8452.1kbits/s speed=75.9x    frame=1534391 fps=4556 q=-1.0 size=26374400kB time=07:05:57.31 bitrate=8453.9kbits/s speed=75.9x    frame=1536246 fps=4555 q=-1.0 size=26413312kB time=07:06:28.20 bitrate=8456.2kbits/s speed=75.9x    frame=1538295 fps=4554 q=-1.0 size=26455552kB time=07:07:02.32 bitrate=8458.4kbits/s speed=75.9x    frame=1540165 fps=4553 q=-1.0 size=26494208kB time=07:07:33.45 bitrate=8460.5kbits/s speed=75.8x    frame=1543483 fps=4556 q=-1.0 size=26536448kB time=07:08:28.70 bitrate=8455.8kbits/s speed=75.9x    frame=1546349 fps=4558 q=-1.0 size=26576896kB time=07:09:16.41 bitrate=8453.0kbits/s speed=75.9x    frame=1548439 fps=4557 q=-1.0 size=26620416kB time=07:09:51.22 bitrate=8455.4kbits/s speed=75.9x    frame=1550470 fps=4557 q=-1.0 size=26662656kB time=07:10:25.04 bitrate=8457.7kbits/s speed=75.9x    frame=1552467 fps=4556 q=-1.0 size=26704128kB time=07:10:58.29 bitrate=8460.0kbits/s speed=75.9x    frame=1554446 fps=4555 q=-1.0 size=26745088kB time=07:11:31.23 bitrate=8462.2kbits/s speed=75.9x    frame=1556596 fps=4555 q=-1.0 size=26789888kB time=07:12:07.03 bitrate=8464.6kbits/s speed=75.9x    frame=1559199 fps=4556 q=-1.0 size=26827776kB time=07:12:50.37 bitrate=8462.5kbits/s speed=75.9x    frame=1562234 fps=4558 q=-1.0 size=26868992kB time=07:13:40.92 bitrate=8459.0kbits/s speed=75.9x    frame=1564330 fps=4557 q=-1.0 size=26912512kB time=07:14:15.84 bitrate=8461.3kbits/s speed=75.9x    frame=1566104 fps=4556 q=-1.0 size=26949376kB time=07:14:45.36 bitrate=8463.3kbits/s speed=75.9x    frame=1568042 fps=4555 q=-1.0 size=26989568kB time=07:15:17.63 bitrate=8465.5kbits/s speed=75.9x    frame=1569983 fps=4554 q=-1.0 size=27029760kB time=07:15:49.93 bitrate=8467.6kbits/s speed=75.8x    frame=1571903 fps=4553 q=-1.0 size=27069952kB time=07:16:21.90 bitrate=8469.9kbits/s speed=75.8x    frame=1573978 fps=4552 q=-1.0 size=27112704kB time=07:16:56.41 bitrate=8472.1kbits/s speed=75.8x    frame=1576708 fps=4554 q=-1.0 size=27150080kB time=07:17:41.90 bitrate=8469.1kbits/s speed=75.8x    frame=1579699 fps=4556 q=-1.0 size=27191296kB time=07:18:31.73 bitrate=8465.8kbits/s speed=75.9x    frame=1581787 fps=4555 q=-1.0 size=27234560kB time=07:19:06.49 bitrate=8468.1kbits/s speed=75.9x    frame=1583584 fps=4554 q=-1.0 size=27271936kB time=07:19:36.39 bitrate=8470.1kbits/s speed=75.8x    frame=1585481 fps=4553 q=-1.0 size=27311360kB time=07:20:08.00 bitrate=8472.2kbits/s speed=75.8x    frame=1587537 fps=4552 q=-1.0 size=27354112kB time=07:20:42.20 bitrate=8474.5kbits/s speed=75.8x    frame=1589268 fps=4550 q=-1.0 size=27389952kB time=07:21:11.05 bitrate=8476.4kbits/s speed=75.8x    frame=1591046 fps=4549 q=-1.0 size=27427072kB time=07:21:40.66 bitrate=8478.4kbits/s speed=75.8x    frame=1592975 fps=4548 q=-1.0 size=27467008kB time=07:22:12.77 bitrate=8480.4kbits/s speed=75.8x    frame=1594760 fps=4547 q=-1.0 size=27503872kB time=07:22:42.50 bitrate=8482.3kbits/s speed=75.7x    frame=1596671 fps=4545 q=-1.0 size=27543552kB time=07:23:14.30 bitrate=8484.4kbits/s speed=75.7x    frame=1598474 fps=4544 q=-1.0 size=27580928kB time=07:23:44.30 bitrate=8486.3kbits/s speed=75.7x    frame=1600154 fps=4542 q=-1.0 size=27616000kB time=07:24:12.23 bitrate=8488.2kbits/s speed=75.7x    frame=1601806 fps=4541 q=-1.0 size=27650304kB time=07:24:39.74 bitrate=8490.0kbits/s speed=75.6x    frame=1603828 fps=4540 q=-1.0 size=27692288kB time=07:25:13.40 bitrate=8492.2kbits/s speed=75.6x    frame=1605888 fps=4539 q=-1.0 size=27735040kB time=07:25:47.72 bitrate=8494.4kbits/s speed=75.6x    frame=1607776 fps=4538 q=-1.0 size=27771648kB time=07:26:19.16 bitrate=8495.6kbits/s speed=75.6x    frame=1610823 fps=4540 q=-1.0 size=27811072kB time=07:27:09.90 bitrate=8491.6kbits/s speed=75.6x    frame=1613827 fps=4543 q=-1.0 size=27849984kB time=07:27:59.93 bitrate=8487.6kbits/s speed=75.7x    frame=1615659 fps=4541 q=-1.0 size=27887872kB time=07:28:30.46 bitrate=8489.5kbits/s speed=75.6x    frame=1617536 fps=4540 q=-1.0 size=27926784kB time=07:29:01.72 bitrate=8491.5kbits/s speed=75.6x    frame=1619492 fps=4539 q=-1.0 size=27967488kB time=07:29:34.28 bitrate=8493.6kbits/s speed=75.6x    frame=1621340 fps=4538 q=-1.0 size=28005632kB time=07:30:05.10 bitrate=8495.5kbits/s speed=75.6x    frame=1623219 fps=4537 q=-1.0 size=28045056kB time=07:30:36.38 bitrate=8497.6kbits/s speed=75.6x    frame=1625037 fps=4536 q=-1.0 size=28082432kB time=07:31:06.65 bitrate=8499.4kbits/s speed=75.5x    frame=1626863 fps=4535 q=-1.0 size=28120320kB time=07:31:37.07 bitrate=8501.3kbits/s speed=75.5x    frame=1628612 fps=4533 q=-1.0 size=28156928kB time=07:32:06.16 bitrate=8503.3kbits/s speed=75.5x    frame=1630461 fps=4532 q=-1.0 size=28195328kB time=07:32:36.97 bitrate=8505.2kbits/s speed=75.5x    frame=1632206 fps=4530 q=-1.0 size=28231424kB time=07:33:06.01 bitrate=8507.0kbits/s speed=75.5x    frame=1633953 fps=4529 q=-1.0 size=28267776kB time=07:33:35.11 bitrate=8508.9kbits/s speed=75.4x    frame=1635890 fps=4528 q=-1.0 size=28308480kB time=07:34:07.36 bitrate=8511.0kbits/s speed=75.4x    frame=1637874 fps=4527 q=-1.0 size=28349184kB time=07:34:40.41 bitrate=8512.9kbits/s speed=75.4x    frame=1639780 fps=4526 q=-1.0 size=28388608kB time=07:35:12.15 bitrate=8514.9kbits/s speed=75.4x    frame=1641739 fps=4526 q=-1.0 size=28427264kB time=07:35:44.78 bitrate=8516.3kbits/s speed=75.4x    frame=1644843 fps=4528 q=-1.0 size=28467712kB time=07:36:36.47 bitrate=8512.3kbits/s speed=75.4x    frame=1647479 fps=4529 q=-1.0 size=28507136kB time=07:37:20.35 bitrate=8510.5kbits/s speed=75.4x    frame=1649422 fps=4528 q=-1.0 size=28547584kB time=07:37:52.70 bitrate=8512.5kbits/s speed=75.4x    frame=1651373 fps=4527 q=-1.0 size=28587776kB time=07:38:25.14 bitrate=8514.4kbits/s speed=75.4x    frame=1653238 fps=4526 q=-1.0 size=28626688kB time=07:38:56.24 bitrate=8516.4kbits/s speed=75.4x    frame=1655054 fps=4525 q=-1.0 size=28664320kB time=07:39:26.46 bitrate=8518.3kbits/s speed=75.4x    frame=1656942 fps=4524 q=-1.0 size=28703744kB time=07:39:57.90 bitrate=8520.3kbits/s speed=75.3x    frame=1658834 fps=4523 q=-1.0 size=28742656kB time=07:40:29.42 bitrate=8522.1kbits/s speed=75.3x    frame=1660817 fps=4522 q=-1.0 size=28783872kB time=07:41:02.45 bitrate=8524.1kbits/s speed=75.3x    frame=1662807 fps=4521 q=-1.0 size=28825344kB time=07:41:35.57 bitrate=8526.2kbits/s speed=75.3x    frame=1665067 fps=4521 q=-1.0 size=28866048kB time=07:42:13.25 bitrate=8526.6kbits/s speed=75.3x    frame=1668283 fps=4524 q=-1.0 size=28907008kB time=07:43:06.78 bitrate=8522.3kbits/s speed=75.3x    frame=1670047 fps=4522 q=-1.0 size=28942848kB time=07:43:36.16 bitrate=8523.8kbits/s speed=75.3x    frame=1671807 fps=4521 q=-1.0 size=28979456kB time=07:44:05.49 bitrate=8525.6kbits/s speed=75.3x    frame=1673725 fps=4520 q=-1.0 size=29019392kB time=07:44:37.45 bitrate=8527.6kbits/s speed=75.3x    frame=1675624 fps=4519 q=-1.0 size=29059072kB time=07:45:09.04 bitrate=8529.6kbits/s speed=75.3x    frame=1677311 fps=4518 q=-1.0 size=29093888kB time=07:45:37.12 bitrate=8531.2kbits/s speed=75.2x    frame=1679256 fps=4517 q=-1.0 size=29134080kB time=07:46:09.55 bitrate=8533.1kbits/s speed=75.2x    frame=1681189 fps=4516 q=-1.0 size=29174016kB time=07:46:41.74 bitrate=8535.0kbits/s speed=75.2x    frame=1683219 fps=4515 q=-1.0 size=29216512kB time=07:47:15.54 bitrate=8537.1kbits/s speed=75.2x    frame=1685206 fps=4515 q=-1.0 size=29257472kB time=07:47:48.59 bitrate=8539.0kbits/s speed=75.2x    frame=1687282 fps=4514 q=-1.0 size=29300992kB time=07:48:23.13 bitrate=8541.2kbits/s speed=75.2x    frame=1689202 fps=4513 q=-1.0 size=29340928kB time=07:48:55.09 bitrate=8543.1kbits/s speed=75.2x    frame=1691108 fps=4512 q=-1.0 size=29380352kB time=07:49:26.85 bitrate=8544.9kbits/s speed=75.2x    frame=1693144 fps=4512 q=-1.0 size=29419008kB time=07:50:00.77 bitrate=8545.9kbits/s speed=75.1x    frame=1696214 fps=4514 q=-1.0 size=29458432kB time=07:50:51.89 bitrate=8541.9kbits/s speed=75.2x    frame=1699127 fps=4516 q=-1.0 size=29495552kB time=07:51:40.40 bitrate=8538.0kbits/s speed=75.2x    frame=1701370 fps=4516 q=-1.0 size=29533952kB time=07:52:17.76 bitrate=8537.8kbits/s speed=75.2x    frame=1703192 fps=4514 q=-1.0 size=29571584kB time=07:52:48.14 bitrate=8539.5kbits/s speed=75.2x    frame=1705067 fps=4513 q=-1.0 size=29610752kB time=07:53:19.36 bitrate=8541.4kbits/s speed=75.2x    frame=1706972 fps=4512 q=-1.0 size=29650432kB time=07:53:51.07 bitrate=8543.3kbits/s speed=75.2x    frame=1708887 fps=4511 q=-1.0 size=29689856kB time=07:54:22.93 bitrate=8545.1kbits/s speed=75.1x    frame=1710911 fps=4511 q=-1.0 size=29732096kB time=07:54:56.61 bitrate=8547.2kbits/s speed=75.1x    frame=1712992 fps=4510 q=-1.0 size=29775360kB time=07:55:31.26 bitrate=8549.2kbits/s speed=75.1x    frame=1714975 fps=4510 q=-1.0 size=29816320kB time=07:56:04.28 bitrate=8551.1kbits/s speed=75.1x    frame=1717066 fps=4509 q=-1.0 size=29859840kB time=07:56:39.10 bitrate=8553.1kbits/s speed=75.1x    frame=1719101 fps=4509 q=-1.0 size=29902080kB time=07:57:12.97 bitrate=8555.1kbits/s speed=75.1x    frame=1721151 fps=4508 q=-1.0 size=29944832kB time=07:57:47.11 bitrate=8557.1kbits/s speed=75.1x    frame=1724005 fps=4510 q=-1.0 size=29987072kB time=07:58:34.65 bitrate=8555.0kbits/s speed=75.1x    frame=1727289 fps=4512 q=-1.0 size=30027776kB time=07:59:29.35 bitrate=8550.3kbits/s speed=75.2x    frame=1730171 fps=4514 q=-1.0 size=30070528kB time=08:00:17.36 bitrate=8548.2kbits/s speed=75.2x    frame=1732157 fps=4513 q=-1.0 size=30112000kB time=08:00:50.41 bitrate=8550.2kbits/s speed=75.2x    frame=1734033 fps=4512 q=-1.0 size=30150656kB time=08:01:21.63 bitrate=8551.9kbits/s speed=75.2x    frame=1736132 fps=4512 q=-1.0 size=30194432kB time=08:01:56.58 bitrate=8554.0kbits/s speed=75.1x    frame=1738241 fps=4511 q=-1.0 size=30238208kB time=08:02:31.70 bitrate=8556.0kbits/s speed=75.1x    frame=1740156 fps=4511 q=-1.0 size=30278144kB time=08:03:03.58 bitrate=8557.9kbits/s speed=75.1x    frame=1742652 fps=4511 q=-1.0 size=30318848kB time=08:03:45.15 bitrate=8557.1kbits/s speed=75.1x    frame=1745563 fps=4513 q=-1.0 size=30359040kB time=08:04:33.63 bitrate=8554.2kbits/s speed=75.2x    frame=1747539 fps=4512 q=-1.0 size=30400000kB time=08:05:06.55 bitrate=8556.0kbits/s speed=75.2x    frame=1749594 fps=4512 q=-1.0 size=30442752kB time=08:05:40.77 bitrate=8558.0kbits/s speed=75.1x    frame=1751579 fps=4511 q=-1.0 size=30483968kB time=08:06:13.84 bitrate=8559.9kbits/s speed=75.1x    frame=1753640 fps=4510 q=-1.0 size=30526976kB time=08:06:48.13 bitrate=8561.9kbits/s speed=75.1x    frame=1755670 fps=4510 q=-1.0 size=30568960kB time=08:07:21.95 bitrate=8563.8kbits/s speed=75.1x    frame=1757518 fps=4509 q=-1.0 size=30607616kB time=08:07:52.72 bitrate=8565.6kbits/s speed=75.1x    frame=1759506 fps=4508 q=-1.0 size=30648576kB time=08:08:25.82 bitrate=8567.3kbits/s speed=75.1x    frame=1761455 fps=4507 q=-1.0 size=30689792kB time=08:08:58.27 bitrate=8569.4kbits/s speed=75.1x    frame=1763563 fps=4507 q=-1.0 size=30732800kB time=08:09:33.38 bitrate=8571.1kbits/s speed=75.1x    frame=1765620 fps=4506 q=-1.0 size=30775552kB time=08:10:07.63 bitrate=8573.1kbits/s speed=75.1x    frame=1767577 fps=4506 q=-1.0 size=30816768kB time=08:10:40.19 bitrate=8575.0kbits/s speed=  75x    frame=1769665 fps=4505 q=-1.0 size=30857472kB time=08:11:14.99 bitrate=8576.2kbits/s speed=  75x    frame=1772913 fps=4508 q=-1.0 size=30900224kB time=08:12:09.05 bitrate=8572.4kbits/s speed=75.1x    frame=1775336 fps=4508 q=-1.0 size=30940160kB time=08:12:49.43 bitrate=8571.8kbits/s speed=75.1x    frame=1777431 fps=4508 q=-1.0 size=30983936kB time=08:13:24.30 bitrate=8573.8kbits/s speed=75.1x    frame=1779530 fps=4507 q=-1.0 size=31027456kB time=08:13:59.28 bitrate=8575.7kbits/s speed=75.1x    frame=1781476 fps=4507 q=-1.0 size=31067648kB time=08:14:31.66 bitrate=8577.4kbits/s speed=75.1x    frame=1783452 fps=4506 q=-1.0 size=31108864kB time=08:15:04.57 bitrate=8579.3kbits/s speed=  75x    frame=1785381 fps=4505 q=-1.0 size=31148288kB time=08:15:36.70 bitrate=8580.9kbits/s speed=  75x    frame=1787211 fps=4504 q=-1.0 size=31186432kB time=08:16:07.19 bitrate=8582.6kbits/s speed=  75x    frame=1789139 fps=4503 q=-1.0 size=31226112kB time=08:16:39.30 bitrate=8584.2kbits/s speed=  75x    frame=1790916 fps=4502 q=-1.0 size=31263232kB time=08:17:08.88 bitrate=8585.9kbits/s speed=  75x    frame=1792736 fps=4501 q=-1.0 size=31300864kB time=08:17:39.19 bitrate=8587.5kbits/s speed=  75x    frame=1794651 fps=4500 q=-1.0 size=31340800kB time=08:18:11.09 bitrate=8589.3kbits/s speed=  75x    frame=1796411 fps=4499 q=-1.0 size=31377152kB time=08:18:40.40 bitrate=8590.8kbits/s speed=74.9x    frame=1798330 fps=4498 q=-1.0 size=31416832kB time=08:19:12.34 bitrate=8592.5kbits/s speed=74.9x    frame=1800183 fps=4497 q=-1.0 size=31455488kB time=08:19:43.21 bitrate=8594.3kbits/s speed=74.9x    frame=1802479 fps=4497 q=-1.0 size=31491584kB time=08:20:21.42 bitrate=8593.2kbits/s speed=74.9x    frame=1805535 fps=4499 q=-1.0 size=31530240kB time=08:21:12.28 bitrate=8589.2kbits/s speed=74.9x    frame=1808431 fps=4501 q=-1.0 size=31567872kB time=08:22:00.53 bitrate=8585.6kbits/s speed=  75x    frame=1810524 fps=4500 q=-1.0 size=31607808kB time=08:22:35.39 bitrate=8586.6kbits/s speed=  75x    frame=1812516 fps=4500 q=-1.0 size=31649024kB time=08:23:08.52 bitrate=8588.3kbits/s speed=74.9x    frame=1814346 fps=4499 q=-1.0 size=31686912kB time=08:23:39.02 bitrate=8589.9kbits/s speed=74.9x    frame=1816312 fps=4498 q=-1.0 size=31727872kB time=08:24:11.73 bitrate=8591.7kbits/s speed=74.9x    frame=1818179 fps=4497 q=-1.0 size=31767040kB time=08:24:42.80 bitrate=8593.5kbits/s speed=74.9x    frame=1820083 fps=4496 q=-1.0 size=31806464kB time=08:25:14.54 bitrate=8595.2kbits/s speed=74.9x    frame=1822011 fps=4495 q=-1.0 size=31846144kB time=08:25:46.63 bitrate=8596.8kbits/s speed=74.9x    frame=1823899 fps=4494 q=-1.0 size=31885312kB time=08:26:18.09 bitrate=8598.4kbits/s speed=74.9x    frame=1825588 fps=4493 q=-1.0 size=31920128kB time=08:26:46.20 bitrate=8599.9kbits/s speed=74.8x    frame=1827441 fps=4492 q=-1.0 size=31959296kB time=08:27:17.02 bitrate=8601.7kbits/s speed=74.8x    frame=1829729 fps=4492 q=-1.0 size=31996672kB time=08:27:55.17 bitrate=8601.0kbits/s speed=74.8x    frame=1832812 fps=4494 q=-1.0 size=32035328kB time=08:28:46.50 bitrate=8596.9kbits/s speed=74.9x    frame=1832967 fps=4494 q=-1.0 Lsize=32037697kB time=08:28:49.07 bitrate=8596.8kbits/s speed=74.9x    
video:31248051kB audio:728274kB subtitle:0kB other streams:0kB global headers:0kB muxing overhead: 0.191930%
